<svg xmlns="http://www.w3.org/2000/svg" xmlns:xlink="http://www.w3.org/1999/xlink" width="400" zoomAndPan="magnify" viewBox="0 0 300 74.999997" height="100" preserveAspectRatio="xMidYMid meet" version="1.0"><defs><g/><clipPath id="02074d13fb"><path d="M 38.144531 12.089844 L 67.5 12.089844 L 67.5 75 L 38.144531 75 Z M 38.144531 12.089844 " clip-rule="nonzero"/></clipPath><clipPath id="b5194d7801"><path d="M 7.5 12 L 37 12 L 37 75 L 7.5 75 Z M 7.5 12 " clip-rule="nonzero"/></clipPath></defs><path fill="#004aad" d="M 55.351562 22.117188 C 57.355469 23.800781 57.617188 26.792969 55.933594 28.796875 C 54.25 30.800781 51.257812 31.058594 49.253906 29.375 C 47.253906 27.691406 46.992188 24.703125 48.675781 22.699219 C 50.359375 20.695312 53.347656 20.433594 55.351562 22.117188 " fill-opacity="1" fill-rule="nonzero"/><path fill="#004aad" d="M 60.867188 26.941406 C 60.925781 27.0625 60.910156 27.214844 60.816406 27.328125 C 60.726562 27.4375 60.578125 27.476562 60.445312 27.441406 L 60.414062 27.480469 L 59.367188 29.730469 L 58.152344 28.707031 L 60.183594 27.289062 L 60.21875 27.25 C 60.160156 27.125 60.171875 26.976562 60.265625 26.863281 C 60.359375 26.753906 60.507812 26.710938 60.640625 26.75 L 62.351562 24.707031 L 61.121094 22.503906 L 61.714844 24.496094 L 60.304688 24.023438 L 58.09375 26.652344 C 58.398438 24.691406 57.703125 22.625 56.074219 21.257812 C 54.476562 19.914062 52.363281 19.574219 50.507812 20.171875 L 52.664062 17.605469 L 50.9375 14.414062 L 59.386719 17.363281 L 63.746094 25.175781 L 62.65625 24.808594 L 60.867188 26.941406 " fill-opacity="1" fill-rule="nonzero"/><g clip-path="url(#02074d13fb)"><path fill="#004aad" d="M 49.035156 65.9375 C 49.035156 65.9375 41.492188 63.867188 41.433594 50.15625 C 41.410156 44.308594 42.457031 39.636719 40.628906 31.160156 C 38.804688 22.683594 37.582031 17.195312 38.511719 12.164062 C 38.511719 12.164062 40.191406 23.375 49.035156 28.675781 C 60.144531 35.332031 64.960938 42.558594 64.671875 51.179688 C 64.671875 51.179688 61.199219 42.582031 53.214844 40.339844 C 53.214844 40.339844 52.589844 64.476562 67.59375 75 C 67.59375 75 54.796875 72.765625 46.550781 52.203125 C 46.550781 52.203125 45.382812 61.847656 49.035156 65.9375 " fill-opacity="1" fill-rule="nonzero"/></g><path fill="#ed5d1d" d="M 19.738281 22.117188 C 17.734375 23.800781 17.476562 26.792969 19.160156 28.796875 C 20.84375 30.800781 23.832031 31.058594 25.835938 29.375 C 27.839844 27.691406 28.101562 24.703125 26.417969 22.699219 C 24.734375 20.695312 21.742188 20.433594 19.738281 22.117188 " fill-opacity="1" fill-rule="nonzero"/><path fill="#ed5d1d" d="M 14.226562 26.941406 C 14.167969 27.0625 14.179688 27.214844 14.273438 27.328125 C 14.367188 27.4375 14.515625 27.476562 14.644531 27.441406 L 14.679688 27.480469 L 15.726562 29.730469 L 16.941406 28.707031 L 14.90625 27.289062 L 14.875 27.25 C 14.933594 27.125 14.917969 26.976562 14.824219 26.863281 C 14.730469 26.753906 14.585938 26.710938 14.453125 26.75 L 12.738281 24.707031 L 13.972656 22.503906 L 13.378906 24.496094 L 14.789062 24.023438 L 17 26.652344 C 16.695312 24.691406 17.390625 22.625 19.015625 21.257812 C 20.617188 19.914062 22.726562 19.574219 24.582031 20.171875 L 22.429688 17.605469 L 24.15625 14.414062 L 15.707031 17.363281 L 11.347656 25.175781 L 12.4375 24.808594 L 14.226562 26.941406 " fill-opacity="1" fill-rule="nonzero"/><g clip-path="url(#b5194d7801)"><path fill="#ed5d1d" d="M 26.058594 65.9375 C 26.058594 65.9375 33.597656 63.867188 33.65625 50.15625 C 33.683594 44.308594 32.636719 39.636719 34.460938 31.160156 C 36.289062 22.683594 37.511719 17.195312 36.582031 12.164062 C 36.582031 12.164062 34.902344 23.375 26.058594 28.675781 C 14.949219 35.332031 10.128906 42.558594 10.421875 51.179688 C 10.421875 51.179688 13.894531 42.582031 21.875 40.339844 C 21.875 40.339844 22.5 64.476562 7.5 75 C 7.5 75 20.296875 72.765625 28.542969 52.203125 C 28.542969 52.203125 29.710938 61.847656 26.058594 65.9375 " fill-opacity="1" fill-rule="nonzero"/></g><path fill="#ed5d1d" d="M 37.34375 9.917969 L 37.515625 11.039062 L 37.667969 9.917969 C 37.964844 7.71875 39.671875 5.976562 41.867188 5.644531 L 42.984375 5.472656 L 41.863281 5.320312 C 39.664062 5.023438 37.925781 3.3125 37.589844 1.121094 L 37.417969 0 L 37.269531 1.121094 C 36.972656 3.320312 35.261719 5.0625 33.066406 5.394531 L 31.949219 5.566406 L 33.070312 5.71875 C 35.269531 6.015625 37.007812 7.726562 37.34375 9.917969 " fill-opacity="1" fill-rule="nonzero"/><g fill="#004aad" fill-opacity="1"><g transform="translate(71.214845, 46.874995)"><g><path d="M 5.9375 0 L 2.484375 0 L 2.484375 -19.0625 L 7.40625 -19.0625 L 12.234375 -5.046875 L 12.5 -5.046875 L 17.296875 -19.0625 L 22.109375 -19.0625 L 22.109375 0 L 18.546875 0 L 18.546875 -12.59375 L 18.21875 -12.640625 L 13.8125 0 L 10.671875 0 L 6.265625 -12.640625 L 5.9375 -12.59375 Z M 5.9375 0 "/></g></g></g><g fill="#004aad" fill-opacity="1"><g transform="translate(95.822353, 46.874995)"><g><path d="M 5.609375 0.28125 C 4.679688 0.28125 3.878906 0.109375 3.203125 -0.234375 C 2.523438 -0.578125 2.003906 -1.078125 1.640625 -1.734375 C 1.273438 -2.390625 1.09375 -3.175781 1.09375 -4.09375 C 1.09375 -4.945312 1.273438 -5.660156 1.640625 -6.234375 C 2.003906 -6.816406 2.566406 -7.289062 3.328125 -7.65625 C 4.097656 -8.03125 5.101562 -8.316406 6.34375 -8.515625 C 7.195312 -8.648438 7.847656 -8.800781 8.296875 -8.96875 C 8.742188 -9.132812 9.046875 -9.320312 9.203125 -9.53125 C 9.359375 -9.738281 9.4375 -10.003906 9.4375 -10.328125 C 9.4375 -10.785156 9.273438 -11.132812 8.953125 -11.375 C 8.628906 -11.625 8.097656 -11.75 7.359375 -11.75 C 6.554688 -11.75 5.789062 -11.566406 5.0625 -11.203125 C 4.34375 -10.847656 3.71875 -10.382812 3.1875 -9.8125 L 2.9375 -9.8125 L 1.421875 -12.09375 C 2.148438 -12.894531 3.039062 -13.519531 4.09375 -13.96875 C 5.144531 -14.425781 6.289062 -14.65625 7.53125 -14.65625 C 9.4375 -14.65625 10.816406 -14.25 11.671875 -13.4375 C 12.523438 -12.632812 12.953125 -11.488281 12.953125 -10 L 12.953125 -3.75 C 12.953125 -3.113281 13.234375 -2.796875 13.796875 -2.796875 C 14.015625 -2.796875 14.226562 -2.832031 14.4375 -2.90625 L 14.609375 -2.859375 L 14.875 -0.34375 C 14.675781 -0.207031 14.398438 -0.0976562 14.046875 -0.015625 C 13.691406 0.0664062 13.300781 0.109375 12.875 0.109375 C 12.007812 0.109375 11.332031 -0.0546875 10.84375 -0.390625 C 10.363281 -0.722656 10.019531 -1.238281 9.8125 -1.9375 L 9.546875 -1.96875 C 8.835938 -0.46875 7.523438 0.28125 5.609375 0.28125 Z M 6.75 -2.421875 C 7.582031 -2.421875 8.25 -2.703125 8.75 -3.265625 C 9.25 -3.828125 9.5 -4.609375 9.5 -5.609375 L 9.5 -7.0625 L 9.25 -7.125 C 9.039062 -6.945312 8.757812 -6.796875 8.40625 -6.671875 C 8.050781 -6.554688 7.546875 -6.445312 6.890625 -6.34375 C 6.097656 -6.207031 5.53125 -5.976562 5.1875 -5.65625 C 4.851562 -5.34375 4.6875 -4.894531 4.6875 -4.3125 C 4.6875 -3.695312 4.867188 -3.226562 5.234375 -2.90625 C 5.597656 -2.582031 6.101562 -2.421875 6.75 -2.421875 Z M 6.75 -2.421875 "/></g></g></g><g fill="#004aad" fill-opacity="1"><g transform="translate(110.988508, 46.874995)"><g><path d="M 6.734375 0.28125 C 5.742188 0.28125 4.835938 0.164062 4.015625 -0.0625 C 3.203125 -0.300781 2.503906 -0.617188 1.921875 -1.015625 C 1.347656 -1.421875 0.925781 -1.882812 0.65625 -2.40625 L 2.65625 -4.578125 L 2.9375 -4.578125 C 3.414062 -3.929688 3.976562 -3.445312 4.625 -3.125 C 5.28125 -2.800781 5.988281 -2.640625 6.75 -2.640625 C 7.457031 -2.640625 7.988281 -2.765625 8.34375 -3.015625 C 8.695312 -3.273438 8.875 -3.640625 8.875 -4.109375 C 8.875 -4.472656 8.742188 -4.773438 8.484375 -5.015625 C 8.234375 -5.265625 7.820312 -5.460938 7.25 -5.609375 L 5.34375 -6.0625 C 3.914062 -6.40625 2.875 -6.925781 2.21875 -7.625 C 1.5625 -8.320312 1.234375 -9.207031 1.234375 -10.28125 C 1.234375 -11.175781 1.460938 -11.953125 1.921875 -12.609375 C 2.378906 -13.273438 3.019531 -13.78125 3.84375 -14.125 C 4.675781 -14.476562 5.644531 -14.65625 6.75 -14.65625 C 8.050781 -14.65625 9.125 -14.46875 9.96875 -14.09375 C 10.820312 -13.71875 11.488281 -13.21875 11.96875 -12.59375 L 10.046875 -10.515625 L 9.78125 -10.515625 C 9.375 -10.960938 8.921875 -11.289062 8.421875 -11.5 C 7.929688 -11.707031 7.375 -11.8125 6.75 -11.8125 C 5.320312 -11.8125 4.609375 -11.367188 4.609375 -10.484375 C 4.609375 -10.109375 4.738281 -9.800781 5 -9.5625 C 5.269531 -9.332031 5.742188 -9.144531 6.421875 -9 L 8.1875 -8.609375 C 9.644531 -8.296875 10.710938 -7.789062 11.390625 -7.09375 C 12.066406 -6.40625 12.40625 -5.476562 12.40625 -4.3125 C 12.40625 -3.40625 12.175781 -2.601562 11.71875 -1.90625 C 11.269531 -1.207031 10.617188 -0.664062 9.765625 -0.28125 C 8.910156 0.09375 7.898438 0.28125 6.734375 0.28125 Z M 6.734375 0.28125 "/></g></g></g><g fill="#004aad" fill-opacity="1"><g transform="translate(124.250744, 46.874995)"><g><path d="M 8.359375 0.28125 C 6.953125 0.28125 5.710938 -0.00390625 4.640625 -0.578125 C 3.578125 -1.160156 2.753906 -2.007812 2.171875 -3.125 C 1.585938 -4.25 1.296875 -5.601562 1.296875 -7.1875 C 1.296875 -8.769531 1.585938 -10.117188 2.171875 -11.234375 C 2.753906 -12.359375 3.578125 -13.207031 4.640625 -13.78125 C 5.710938 -14.363281 6.953125 -14.65625 8.359375 -14.65625 C 9.765625 -14.65625 11 -14.363281 12.0625 -13.78125 C 13.132812 -13.207031 13.960938 -12.359375 14.546875 -11.234375 C 15.140625 -10.117188 15.4375 -8.769531 15.4375 -7.1875 C 15.4375 -5.601562 15.140625 -4.25 14.546875 -3.125 C 13.960938 -2.007812 13.132812 -1.160156 12.0625 -0.578125 C 11 -0.00390625 9.765625 0.28125 8.359375 0.28125 Z M 8.359375 -2.796875 C 10.585938 -2.796875 11.703125 -4.257812 11.703125 -7.1875 C 11.703125 -8.707031 11.414062 -9.820312 10.84375 -10.53125 C 10.269531 -11.238281 9.441406 -11.59375 8.359375 -11.59375 C 6.117188 -11.59375 5 -10.125 5 -7.1875 C 5 -4.257812 6.117188 -2.796875 8.359375 -2.796875 Z M 8.359375 -2.796875 "/></g></g></g><g fill="#004aad" fill-opacity="1"><g transform="translate(140.968718, 46.874995)"><g><path d="M 2.078125 0 L 2.078125 -14.375 L 5.546875 -14.375 L 5.546875 -12.453125 L 5.8125 -12.40625 C 6.28125 -13.175781 6.828125 -13.742188 7.453125 -14.109375 C 8.085938 -14.472656 8.898438 -14.65625 9.890625 -14.65625 C 10.972656 -14.65625 11.84375 -14.4375 12.5 -14 C 13.164062 -13.570312 13.648438 -12.945312 13.953125 -12.125 L 14.21875 -12.125 C 14.664062 -12.988281 15.238281 -13.625 15.9375 -14.03125 C 16.632812 -14.445312 17.503906 -14.65625 18.546875 -14.65625 C 21.535156 -14.65625 23.03125 -12.992188 23.03125 -9.671875 L 23.03125 0 L 19.421875 0 L 19.421875 -9.21875 C 19.421875 -10.0625 19.253906 -10.671875 18.921875 -11.046875 C 18.585938 -11.421875 18.054688 -11.609375 17.328125 -11.609375 C 15.347656 -11.609375 14.359375 -10.28125 14.359375 -7.625 L 14.359375 0 L 10.75 0 L 10.75 -9.21875 C 10.75 -10.0625 10.578125 -10.671875 10.234375 -11.046875 C 9.898438 -11.421875 9.367188 -11.609375 8.640625 -11.609375 C 7.710938 -11.609375 6.988281 -11.296875 6.46875 -10.671875 C 5.945312 -10.046875 5.6875 -9.054688 5.6875 -7.703125 L 5.6875 0 Z M 2.078125 0 "/></g></g></g><g fill="#004aad" fill-opacity="1"><g transform="translate(165.850071, 46.874995)"><g><path d="M 8.359375 0.28125 C 6.953125 0.28125 5.710938 -0.00390625 4.640625 -0.578125 C 3.578125 -1.160156 2.753906 -2.007812 2.171875 -3.125 C 1.585938 -4.25 1.296875 -5.601562 1.296875 -7.1875 C 1.296875 -8.769531 1.585938 -10.117188 2.171875 -11.234375 C 2.753906 -12.359375 3.578125 -13.207031 4.640625 -13.78125 C 5.710938 -14.363281 6.953125 -14.65625 8.359375 -14.65625 C 9.765625 -14.65625 11 -14.363281 12.0625 -13.78125 C 13.132812 -13.207031 13.960938 -12.359375 14.546875 -11.234375 C 15.140625 -10.117188 15.4375 -8.769531 15.4375 -7.1875 C 15.4375 -5.601562 15.140625 -4.25 14.546875 -3.125 C 13.960938 -2.007812 13.132812 -1.160156 12.0625 -0.578125 C 11 -0.00390625 9.765625 0.28125 8.359375 0.28125 Z M 8.359375 -2.796875 C 10.585938 -2.796875 11.703125 -4.257812 11.703125 -7.1875 C 11.703125 -8.707031 11.414062 -9.820312 10.84375 -10.53125 C 10.269531 -11.238281 9.441406 -11.59375 8.359375 -11.59375 C 6.117188 -11.59375 5 -10.125 5 -7.1875 C 5 -4.257812 6.117188 -2.796875 8.359375 -2.796875 Z M 8.359375 -2.796875 "/></g></g></g><g fill="#ed5d1d" fill-opacity="1"><g transform="translate(182.578117, 46.874995)"><g><path d="M 8.453125 0.28125 C 7.128906 0.28125 5.953125 0.117188 4.921875 -0.203125 C 3.890625 -0.535156 3.03125 -0.96875 2.34375 -1.5 C 1.65625 -2.03125 1.128906 -2.613281 0.765625 -3.25 L 2.84375 -5.78125 L 3.171875 -5.78125 C 3.742188 -4.925781 4.46875 -4.242188 5.34375 -3.734375 C 6.226562 -3.234375 7.265625 -2.984375 8.453125 -2.984375 C 9.460938 -2.984375 10.222656 -3.195312 10.734375 -3.625 C 11.242188 -4.050781 11.5 -4.640625 11.5 -5.390625 C 11.5 -5.835938 11.414062 -6.210938 11.25 -6.515625 C 11.082031 -6.816406 10.804688 -7.078125 10.421875 -7.296875 C 10.046875 -7.515625 9.53125 -7.703125 8.875 -7.859375 L 6.421875 -8.421875 C 4.710938 -8.816406 3.4375 -9.46875 2.59375 -10.375 C 1.757812 -11.28125 1.34375 -12.457031 1.34375 -13.90625 C 1.34375 -14.988281 1.609375 -15.9375 2.140625 -16.75 C 2.679688 -17.570312 3.46875 -18.207031 4.5 -18.65625 C 5.53125 -19.113281 6.765625 -19.34375 8.203125 -19.34375 C 9.671875 -19.34375 10.925781 -19.144531 11.96875 -18.75 C 13.019531 -18.363281 13.90625 -17.769531 14.625 -16.96875 L 12.765625 -14.421875 L 12.4375 -14.421875 C 11.894531 -14.984375 11.273438 -15.40625 10.578125 -15.6875 C 9.890625 -15.96875 9.097656 -16.109375 8.203125 -16.109375 C 7.171875 -16.109375 6.382812 -15.925781 5.84375 -15.5625 C 5.300781 -15.195312 5.03125 -14.695312 5.03125 -14.0625 C 5.03125 -13.457031 5.21875 -12.976562 5.59375 -12.625 C 5.976562 -12.269531 6.632812 -11.988281 7.5625 -11.78125 L 10.0625 -11.265625 C 11.914062 -10.867188 13.257812 -10.203125 14.09375 -9.265625 C 14.925781 -8.335938 15.34375 -7.125 15.34375 -5.625 C 15.34375 -4.425781 15.085938 -3.382812 14.578125 -2.5 C 14.066406 -1.625 13.289062 -0.941406 12.25 -0.453125 C 11.21875 0.0351562 9.953125 0.28125 8.453125 0.28125 Z M 8.453125 0.28125 "/></g></g></g><g fill="#ed5d1d" fill-opacity="1"><g transform="translate(198.957037, 46.874995)"><g><path d="M 8.359375 0.28125 C 6.953125 0.28125 5.710938 -0.00390625 4.640625 -0.578125 C 3.578125 -1.160156 2.753906 -2.007812 2.171875 -3.125 C 1.585938 -4.25 1.296875 -5.601562 1.296875 -7.1875 C 1.296875 -8.769531 1.585938 -10.117188 2.171875 -11.234375 C 2.753906 -12.359375 3.578125 -13.207031 4.640625 -13.78125 C 5.710938 -14.363281 6.953125 -14.65625 8.359375 -14.65625 C 9.765625 -14.65625 11 -14.363281 12.0625 -13.78125 C 13.132812 -13.207031 13.960938 -12.359375 14.546875 -11.234375 C 15.140625 -10.117188 15.4375 -8.769531 15.4375 -7.1875 C 15.4375 -5.601562 15.140625 -4.25 14.546875 -3.125 C 13.960938 -2.007812 13.132812 -1.160156 12.0625 -0.578125 C 11 -0.00390625 9.765625 0.28125 8.359375 0.28125 Z M 8.359375 -2.796875 C 10.585938 -2.796875 11.703125 -4.257812 11.703125 -7.1875 C 11.703125 -8.707031 11.414062 -9.820312 10.84375 -10.53125 C 10.269531 -11.238281 9.441406 -11.59375 8.359375 -11.59375 C 6.117188 -11.59375 5 -10.125 5 -7.1875 C 5 -4.257812 6.117188 -2.796875 8.359375 -2.796875 Z M 8.359375 -2.796875 "/></g></g></g><g fill="#ed5d1d" fill-opacity="1"><g transform="translate(215.675012, 46.874995)"><g><path d="M 2.078125 0 L 2.078125 -20.15625 L 5.6875 -20.15625 L 5.6875 -8.96875 L 6.03125 -8.96875 L 10.203125 -14.375 L 13.859375 -14.375 L 13.859375 -14.078125 L 8.96875 -7.765625 L 14.40625 -0.328125 L 14.40625 0 L 10.59375 0 L 6.03125 -6.0625 L 5.6875 -6.0625 L 5.6875 0 Z M 2.078125 0 "/></g></g></g><g fill="#ed5d1d" fill-opacity="1"><g transform="translate(229.889202, 46.874995)"><g><path d="M 8.359375 0.28125 C 6.953125 0.28125 5.710938 -0.00390625 4.640625 -0.578125 C 3.578125 -1.160156 2.753906 -2.007812 2.171875 -3.125 C 1.585938 -4.25 1.296875 -5.601562 1.296875 -7.1875 C 1.296875 -8.769531 1.585938 -10.117188 2.171875 -11.234375 C 2.753906 -12.359375 3.578125 -13.207031 4.640625 -13.78125 C 5.710938 -14.363281 6.953125 -14.65625 8.359375 -14.65625 C 9.765625 -14.65625 11 -14.363281 12.0625 -13.78125 C 13.132812 -13.207031 13.960938 -12.359375 14.546875 -11.234375 C 15.140625 -10.117188 15.4375 -8.769531 15.4375 -7.1875 C 15.4375 -5.601562 15.140625 -4.25 14.546875 -3.125 C 13.960938 -2.007812 13.132812 -1.160156 12.0625 -0.578125 C 11 -0.00390625 9.765625 0.28125 8.359375 0.28125 Z M 8.359375 -2.796875 C 10.585938 -2.796875 11.703125 -4.257812 11.703125 -7.1875 C 11.703125 -8.707031 11.414062 -9.820312 10.84375 -10.53125 C 10.269531 -11.238281 9.441406 -11.59375 8.359375 -11.59375 C 6.117188 -11.59375 5 -10.125 5 -7.1875 C 5 -4.257812 6.117188 -2.796875 8.359375 -2.796875 Z M 8.359375 -2.796875 "/></g></g></g></svg>