<svg xmlns="http://www.w3.org/2000/svg" xmlns:xlink="http://www.w3.org/1999/xlink" width="500" zoomAndPan="magnify" viewBox="0 0 375 374.999991" height="500" preserveAspectRatio="xMidYMid meet" version="1.0"><defs><clipPath id="77648e8ff8"><path d="M 190.492188 61 L 337.496094 61 L 337.496094 374.542969 L 190.492188 374.542969 Z M 190.492188 61 " clip-rule="nonzero"/></clipPath><clipPath id="88813bb915"><path d="M 37.5 61 L 185 61 L 185 374.542969 L 37.5 374.542969 Z M 37.5 61 " clip-rule="nonzero"/></clipPath><clipPath id="4e1e3f5d53"><path d="M 159 0.292969 L 215 0.292969 L 215 56 L 159 56 Z M 159 0.292969 " clip-rule="nonzero"/></clipPath></defs><path fill="#004aad" d="M 276.390625 110.710938 C 286.394531 119.117188 287.691406 134.042969 279.285156 144.046875 C 270.878906 154.050781 255.957031 155.34375 245.953125 146.9375 C 235.949219 138.53125 234.652344 123.609375 243.0625 113.605469 C 251.464844 103.601562 266.386719 102.304688 276.390625 110.710938 " fill-opacity="1" fill-rule="nonzero"/><path fill="#004aad" d="M 303.917969 134.789062 C 304.210938 135.402344 304.144531 136.15625 303.675781 136.710938 C 303.207031 137.269531 302.476562 137.464844 301.820312 137.285156 L 301.65625 137.480469 L 296.429688 148.710938 L 290.355469 143.605469 L 300.515625 136.527344 L 300.683594 136.328125 C 300.386719 135.710938 300.457031 134.957031 300.925781 134.402344 C 301.390625 133.84375 302.125 133.648438 302.78125 133.828125 L 311.339844 123.644531 L 305.183594 112.644531 L 308.148438 122.578125 L 301.105469 120.21875 L 290.078125 133.347656 C 291.589844 123.566406 288.113281 113.242188 280 106.421875 C 272.015625 99.714844 261.472656 98.019531 252.207031 100.984375 L 262.972656 88.175781 L 254.347656 72.242188 L 296.519531 86.964844 L 318.289062 125.96875 L 312.855469 124.152344 L 303.917969 134.789062 " fill-opacity="1" fill-rule="nonzero"/><g clip-path="url(#77648e8ff8)"><path fill="#004aad" d="M 244.847656 329.472656 C 244.847656 329.472656 207.199219 319.132812 206.910156 250.683594 C 206.785156 221.484375 212.011719 198.160156 202.894531 155.847656 C 193.78125 113.535156 187.671875 86.140625 192.320312 61.011719 C 192.320312 61.011719 200.699219 116.992188 244.847656 143.445312 C 300.308594 176.671875 324.363281 212.75 322.90625 255.789062 C 322.90625 255.789062 305.574219 212.875 265.726562 201.667969 C 265.726562 201.667969 262.605469 322.179688 337.496094 374.703125 C 337.496094 374.703125 273.613281 363.542969 232.445312 260.898438 C 232.445312 260.898438 226.609375 309.046875 244.847656 329.472656 " fill-opacity="1" fill-rule="nonzero"/></g><path fill="#ed5d1d" d="M 98.601562 110.710938 C 88.597656 119.117188 87.300781 134.042969 95.710938 144.046875 C 104.113281 154.050781 119.039062 155.34375 129.042969 146.9375 C 139.046875 138.53125 140.339844 123.609375 131.933594 113.605469 C 123.527344 103.601562 108.605469 102.304688 98.601562 110.710938 " fill-opacity="1" fill-rule="nonzero"/><path fill="#ed5d1d" d="M 71.078125 134.789062 C 70.785156 135.402344 70.851562 136.15625 71.320312 136.710938 C 71.785156 137.269531 72.519531 137.464844 73.175781 137.285156 L 73.339844 137.480469 L 78.566406 148.710938 L 84.636719 143.605469 L 74.480469 136.527344 L 74.3125 136.328125 C 74.605469 135.710938 74.539062 134.957031 74.070312 134.402344 C 73.601562 133.84375 72.871094 133.648438 72.214844 133.828125 L 63.65625 123.644531 L 69.808594 112.644531 L 66.84375 122.578125 L 73.886719 120.21875 L 84.917969 133.347656 C 83.40625 123.566406 86.878906 113.242188 94.996094 106.421875 C 102.980469 99.714844 113.523438 98.019531 122.785156 100.984375 L 112.023438 88.175781 L 120.644531 72.242188 L 78.476562 86.964844 L 56.707031 125.96875 L 62.140625 124.152344 L 71.078125 134.789062 " fill-opacity="1" fill-rule="nonzero"/><g clip-path="url(#88813bb915)"><path fill="#ed5d1d" d="M 130.148438 329.472656 C 130.148438 329.472656 167.792969 319.132812 168.085938 250.683594 C 168.207031 221.484375 162.984375 198.160156 172.097656 155.847656 C 181.214844 113.535156 187.320312 86.140625 182.675781 61.011719 C 182.675781 61.011719 174.296875 116.992188 130.148438 143.445312 C 74.6875 176.671875 50.632812 212.75 52.089844 255.789062 C 52.089844 255.789062 69.421875 212.875 109.269531 201.667969 C 109.269531 201.667969 112.390625 322.179688 37.5 374.703125 C 37.5 374.703125 101.382812 363.542969 142.550781 260.898438 C 142.550781 260.898438 148.386719 309.046875 130.148438 329.472656 " fill-opacity="1" fill-rule="nonzero"/></g><g clip-path="url(#4e1e3f5d53)"><path fill="#ed5d1d" d="M 186.488281 49.8125 L 187.339844 55.398438 L 188.097656 49.796875 C 189.578125 38.820312 198.117188 30.128906 209.066406 28.460938 L 214.65625 27.609375 L 209.054688 26.851562 C 198.078125 25.371094 189.390625 16.832031 187.71875 5.882812 L 186.863281 0.292969 L 186.109375 5.894531 C 184.628906 16.871094 176.089844 25.558594 165.136719 27.230469 L 159.550781 28.082031 L 165.152344 28.839844 C 176.128906 30.320312 184.816406 38.859375 186.488281 49.8125 " fill-opacity="1" fill-rule="nonzero"/></g></svg>