<svg xmlns="http://www.w3.org/2000/svg" xmlns:xlink="http://www.w3.org/1999/xlink" width="500" zoomAndPan="magnify" viewBox="0 0 375 165.000002" height="220" preserveAspectRatio="xMidYMid meet" version="1.0"><defs><clipPath id="15439a9721"><path d="M 4.898438 4.210938 L 220 4.210938 L 220 160 L 4.898438 160 Z M 4.898438 4.210938 " clip-rule="nonzero"/></clipPath></defs><g clip-path="url(#15439a9721)"><path fill="#004180" d="M 193.414062 127.140625 L 172.757812 51.125 L 129.808594 149.730469 C 128.246094 152.925781 126.464844 155.375 124.308594 157.160156 C 122.152344 158.867188 119.476562 159.761719 116.28125 159.761719 C 110.042969 159.761719 105.507812 156.417969 102.757812 149.730469 L 59.957031 51.125 L 30.980469 157.679688 L 4.898438 157.679688 L 43.90625 15.085938 C 45.691406 7.878906 50.074219 4.238281 57.058594 4.238281 C 59.808594 4.238281 62.410156 4.980469 64.863281 6.539062 C 67.316406 8.101562 69.171875 10.328125 70.363281 13.226562 L 117.101562 120.378906 L 163.839844 13.226562 C 166.292969 7.207031 170.527344 4.238281 176.472656 4.238281 C 182.863281 4.238281 187.097656 7.878906 189.179688 15.085938 L 219.644531 127.140625 Z M 193.414062 127.140625 " fill-opacity="1" fill-rule="evenodd"/></g><path fill="#004180" d="M 201.734375 157.679688 L 194.527344 131.226562 L 322.707031 131.226562 C 329.765625 131.226562 335.265625 129.445312 339.054688 125.800781 C 342.84375 122.160156 344.777344 117.40625 344.777344 111.386719 C 344.777344 104.847656 342.84375 99.945312 339.054688 96.675781 C 335.265625 93.40625 329.765625 91.769531 322.707031 91.769531 L 251.074219 91.769531 C 244.015625 91.769531 237.550781 90.65625 231.753906 88.574219 C 225.960938 86.417969 221.128906 83.449219 217.191406 79.582031 C 213.253906 75.792969 210.207031 71.1875 208.050781 65.910156 C 205.898438 60.636719 204.855469 54.839844 204.855469 48.597656 C 204.855469 42.503906 205.898438 36.78125 207.902344 31.582031 C 209.910156 26.378906 212.882812 21.921875 216.894531 18.132812 C 220.832031 14.34375 225.738281 11.445312 231.605469 9.289062 C 237.476562 7.132812 244.089844 6.09375 251.59375 6.09375 L 362.3125 6.09375 L 362.3125 32.546875 L 251.519531 32.546875 C 245.429688 32.546875 240.671875 34.183594 237.328125 37.453125 C 233.984375 40.722656 232.351562 45.253906 232.351562 51.125 C 232.351562 56.996094 234.058594 61.453125 237.476562 64.648438 C 240.894531 67.84375 245.503906 69.476562 251.371094 69.476562 L 322.78125 69.476562 C 338.238281 69.476562 349.902344 73.117188 357.929688 80.328125 C 365.953125 87.535156 369.890625 98.53125 369.890625 113.246094 C 369.890625 119.636719 368.925781 125.578125 366.992188 131.003906 C 365.0625 136.429688 362.164062 141.109375 358.226562 145.046875 C 354.363281 148.984375 349.457031 152.105469 343.511719 154.335938 C 337.570312 156.566406 317.132812 157.753906 309.183594 157.753906 Z M 201.734375 157.679688 " fill-opacity="1" fill-rule="evenodd"/></svg>