<svg xmlns="http://www.w3.org/2000/svg" xmlns:xlink="http://www.w3.org/1999/xlink" width="400" zoomAndPan="magnify" viewBox="0 0 300 89.999999" height="120" preserveAspectRatio="xMidYMid meet" version="1.0"><defs><g/><clipPath id="9af8e67399"><path d="M 36.773438 14.507812 L 72 14.507812 L 72 89.996094 L 36.773438 89.996094 Z M 36.773438 14.507812 " clip-rule="nonzero"/></clipPath></defs><path fill="#004aad" d="M 57.417969 26.542969 C 59.824219 28.5625 60.132812 32.152344 58.113281 34.554688 C 56.09375 36.960938 52.507812 37.269531 50.101562 35.25 C 47.699219 33.230469 47.386719 29.644531 49.40625 27.238281 C 51.425781 24.835938 55.015625 24.523438 57.417969 26.542969 " fill-opacity="1" fill-rule="nonzero"/><path fill="#004aad" d="M 64.035156 32.332031 C 64.105469 32.476562 64.089844 32.660156 63.976562 32.792969 C 63.863281 32.925781 63.6875 32.972656 63.53125 32.929688 L 63.488281 32.976562 L 62.234375 35.675781 L 60.773438 34.449219 L 63.214844 32.75 L 63.257812 32.699219 C 63.1875 32.550781 63.203125 32.371094 63.316406 32.238281 C 63.425781 32.105469 63.601562 32.058594 63.761719 32.101562 L 65.816406 29.652344 L 64.339844 27.007812 L 65.050781 29.394531 L 63.359375 28.828125 L 60.707031 31.984375 C 61.070312 29.632812 60.234375 27.152344 58.285156 25.511719 C 56.367188 23.902344 53.832031 23.492188 51.605469 24.207031 L 54.191406 21.128906 L 52.121094 17.296875 L 62.257812 20.835938 L 67.488281 30.210938 L 66.183594 29.773438 L 64.035156 32.332031 " fill-opacity="1" fill-rule="nonzero"/><g clip-path="url(#9af8e67399)"><path fill="#004aad" d="M 49.835938 79.125 C 49.835938 79.125 40.789062 76.636719 40.71875 60.1875 C 40.6875 53.167969 41.945312 47.5625 39.753906 37.390625 C 37.5625 27.222656 36.09375 20.636719 37.210938 14.597656 C 37.210938 14.597656 39.226562 28.054688 49.835938 34.410156 C 63.167969 42.398438 68.949219 51.070312 68.597656 61.414062 C 68.597656 61.414062 64.429688 51.097656 54.855469 48.40625 C 54.855469 48.40625 54.105469 77.371094 72.105469 89.996094 C 72.105469 89.996094 56.75 87.3125 46.855469 62.640625 C 46.855469 62.640625 45.453125 74.214844 49.835938 79.125 " fill-opacity="1" fill-rule="nonzero"/></g><path fill="#ed5d1d" d="M 14.6875 26.542969 C 12.28125 28.5625 11.96875 32.152344 13.992188 34.554688 C 16.011719 36.960938 19.597656 37.269531 22.003906 35.25 C 24.40625 33.230469 24.71875 29.644531 22.699219 27.238281 C 20.675781 24.835938 17.089844 24.523438 14.6875 26.542969 " fill-opacity="1" fill-rule="nonzero"/><path fill="#ed5d1d" d="M 8.070312 32.332031 C 8 32.476562 8.015625 32.660156 8.128906 32.792969 C 8.242188 32.925781 8.417969 32.972656 8.574219 32.929688 L 8.613281 32.976562 L 9.871094 35.675781 L 11.328125 34.449219 L 8.886719 32.75 L 8.847656 32.699219 C 8.917969 32.550781 8.902344 32.371094 8.789062 32.238281 C 8.675781 32.105469 8.5 32.058594 8.34375 32.101562 L 6.285156 29.652344 L 7.765625 27.007812 L 7.054688 29.394531 L 8.746094 28.828125 L 11.398438 31.984375 C 11.03125 29.632812 11.867188 27.152344 13.820312 25.511719 C 15.738281 23.902344 18.273438 23.492188 20.5 24.207031 L 17.910156 21.128906 L 19.984375 17.296875 L 9.847656 20.835938 L 4.617188 30.210938 L 5.921875 29.773438 L 8.070312 32.332031 " fill-opacity="1" fill-rule="nonzero"/><path fill="#ed5d1d" d="M 22.269531 79.125 C 22.269531 79.125 31.316406 76.636719 31.386719 60.1875 C 31.414062 53.167969 30.160156 47.5625 32.351562 37.390625 C 34.542969 27.222656 36.011719 20.636719 34.894531 14.597656 C 34.894531 14.597656 32.878906 28.054688 22.269531 34.410156 C 8.9375 42.398438 3.15625 51.070312 3.507812 61.414062 C 3.507812 61.414062 7.671875 51.097656 17.25 48.40625 C 17.25 48.40625 18 77.371094 0 89.996094 C 0 89.996094 15.355469 87.3125 25.25 62.640625 C 25.25 62.640625 26.652344 74.214844 22.269531 79.125 " fill-opacity="1" fill-rule="nonzero"/><path fill="#ed5d1d" d="M 35.808594 11.90625 L 36.015625 13.25 L 36.195312 11.902344 C 36.550781 9.265625 38.605469 7.175781 41.238281 6.773438 L 42.578125 6.570312 L 41.234375 6.386719 C 38.59375 6.03125 36.507812 3.980469 36.105469 1.347656 L 35.898438 0.00390625 L 35.71875 1.351562 C 35.363281 3.988281 33.308594 6.078125 30.679688 6.480469 L 29.335938 6.683594 L 30.683594 6.867188 C 33.320312 7.222656 35.40625 9.273438 35.808594 11.90625 " fill-opacity="1" fill-rule="nonzero"/><g fill="#004aad" fill-opacity="1"><g transform="translate(69.572365, 56.249999)"><g><path d="M 23.5 0 L 23.46875 -13.703125 L 16.75 -2.421875 L 14.359375 -2.421875 L 7.671875 -13.421875 L 7.671875 0 L 2.703125 0 L 2.703125 -22.84375 L 7.078125 -22.84375 L 15.640625 -8.65625 L 24.0625 -22.84375 L 28.390625 -22.84375 L 28.46875 0 Z M 23.5 0 "/></g></g></g><g fill="#004aad" fill-opacity="1"><g transform="translate(100.740473, 56.249999)"><g><path d="M 9.4375 -17.828125 C 12.15625 -17.828125 14.242188 -17.175781 15.703125 -15.875 C 17.160156 -14.582031 17.890625 -12.628906 17.890625 -10.015625 L 17.890625 0 L 13.125 0 L 13.125 -2.1875 C 12.164062 -0.550781 10.378906 0.265625 7.765625 0.265625 C 6.421875 0.265625 5.253906 0.0351562 4.265625 -0.421875 C 3.273438 -0.878906 2.515625 -1.507812 1.984375 -2.3125 C 1.460938 -3.125 1.203125 -4.039062 1.203125 -5.0625 C 1.203125 -6.6875 1.816406 -7.96875 3.046875 -8.90625 C 4.273438 -9.84375 6.175781 -10.3125 8.75 -10.3125 L 12.796875 -10.3125 C 12.796875 -11.425781 12.457031 -12.28125 11.78125 -12.875 C 11.101562 -13.476562 10.09375 -13.78125 8.75 -13.78125 C 7.8125 -13.78125 6.890625 -13.628906 5.984375 -13.328125 C 5.085938 -13.035156 4.320312 -12.640625 3.6875 -12.140625 L 1.859375 -15.703125 C 2.816406 -16.378906 3.960938 -16.898438 5.296875 -17.265625 C 6.640625 -17.640625 8.019531 -17.828125 9.4375 -17.828125 Z M 9.046875 -3.171875 C 9.910156 -3.171875 10.679688 -3.367188 11.359375 -3.765625 C 12.035156 -4.171875 12.515625 -4.765625 12.796875 -5.546875 L 12.796875 -7.34375 L 9.296875 -7.34375 C 7.210938 -7.34375 6.171875 -6.65625 6.171875 -5.28125 C 6.171875 -4.632812 6.425781 -4.117188 6.9375 -3.734375 C 7.445312 -3.359375 8.148438 -3.171875 9.046875 -3.171875 Z M 9.046875 -3.171875 "/></g></g></g><g fill="#004aad" fill-opacity="1"><g transform="translate(120.877359, 56.249999)"><g><path d="M 8.265625 0.265625 C 6.804688 0.265625 5.378906 0.0859375 3.984375 -0.265625 C 2.585938 -0.628906 1.476562 -1.082031 0.65625 -1.625 L 2.34375 -5.28125 C 3.132812 -4.78125 4.082031 -4.375 5.1875 -4.0625 C 6.300781 -3.75 7.390625 -3.59375 8.453125 -3.59375 C 10.609375 -3.59375 11.6875 -4.125 11.6875 -5.1875 C 11.6875 -5.6875 11.390625 -6.046875 10.796875 -6.265625 C 10.210938 -6.484375 9.3125 -6.671875 8.09375 -6.828125 C 6.65625 -7.035156 5.46875 -7.28125 4.53125 -7.5625 C 3.601562 -7.851562 2.796875 -8.359375 2.109375 -9.078125 C 1.421875 -9.796875 1.078125 -10.816406 1.078125 -12.140625 C 1.078125 -13.253906 1.394531 -14.238281 2.03125 -15.09375 C 2.675781 -15.957031 3.613281 -16.628906 4.84375 -17.109375 C 6.070312 -17.585938 7.523438 -17.828125 9.203125 -17.828125 C 10.441406 -17.828125 11.675781 -17.6875 12.90625 -17.40625 C 14.132812 -17.132812 15.15625 -16.757812 15.96875 -16.28125 L 14.265625 -12.671875 C 12.722656 -13.535156 11.035156 -13.96875 9.203125 -13.96875 C 8.117188 -13.96875 7.300781 -13.816406 6.75 -13.515625 C 6.207031 -13.210938 5.9375 -12.820312 5.9375 -12.34375 C 5.9375 -11.789062 6.226562 -11.40625 6.8125 -11.1875 C 7.40625 -10.976562 8.34375 -10.773438 9.625 -10.578125 C 11.0625 -10.335938 12.238281 -10.082031 13.15625 -9.8125 C 14.070312 -9.539062 14.863281 -9.046875 15.53125 -8.328125 C 16.207031 -7.609375 16.546875 -6.609375 16.546875 -5.328125 C 16.546875 -4.234375 16.21875 -3.257812 15.5625 -2.40625 C 14.914062 -1.5625 13.96875 -0.90625 12.71875 -0.4375 C 11.46875 0.03125 9.984375 0.265625 8.265625 0.265625 Z M 8.265625 0.265625 "/></g></g></g><g fill="#004aad" fill-opacity="1"><g transform="translate(138.207478, 56.249999)"><g><path d="M 10.703125 0.265625 C 8.859375 0.265625 7.203125 -0.117188 5.734375 -0.890625 C 4.265625 -1.671875 3.113281 -2.742188 2.28125 -4.109375 C 1.457031 -5.484375 1.046875 -7.039062 1.046875 -8.78125 C 1.046875 -10.519531 1.457031 -12.070312 2.28125 -13.4375 C 3.113281 -14.8125 4.265625 -15.882812 5.734375 -16.65625 C 7.203125 -17.4375 8.859375 -17.828125 10.703125 -17.828125 C 12.554688 -17.828125 14.210938 -17.4375 15.671875 -16.65625 C 17.128906 -15.882812 18.269531 -14.8125 19.09375 -13.4375 C 19.914062 -12.070312 20.328125 -10.519531 20.328125 -8.78125 C 20.328125 -7.039062 19.914062 -5.484375 19.09375 -4.109375 C 18.269531 -2.742188 17.128906 -1.671875 15.671875 -0.890625 C 14.210938 -0.117188 12.554688 0.265625 10.703125 0.265625 Z M 10.703125 -3.921875 C 12.015625 -3.921875 13.085938 -4.359375 13.921875 -5.234375 C 14.753906 -6.117188 15.171875 -7.300781 15.171875 -8.78125 C 15.171875 -10.257812 14.753906 -11.4375 13.921875 -12.3125 C 13.085938 -13.195312 12.015625 -13.640625 10.703125 -13.640625 C 9.398438 -13.640625 8.320312 -13.195312 7.46875 -12.3125 C 6.625 -11.4375 6.203125 -10.257812 6.203125 -8.78125 C 6.203125 -7.300781 6.625 -6.117188 7.46875 -5.234375 C 8.320312 -4.359375 9.398438 -3.921875 10.703125 -3.921875 Z M 10.703125 -3.921875 "/></g></g></g><g fill="#004aad" fill-opacity="1"><g transform="translate(159.58456, 56.249999)"><g><path d="M 24.84375 -17.828125 C 27.039062 -17.828125 28.785156 -17.175781 30.078125 -15.875 C 31.367188 -14.582031 32.015625 -12.640625 32.015625 -10.046875 L 32.015625 0 L 26.921875 0 L 26.921875 -9.265625 C 26.921875 -10.660156 26.632812 -11.703125 26.0625 -12.390625 C 25.488281 -13.078125 24.664062 -13.421875 23.59375 -13.421875 C 22.394531 -13.421875 21.445312 -13.03125 20.75 -12.25 C 20.0625 -11.476562 19.71875 -10.332031 19.71875 -8.8125 L 19.71875 0 L 14.625 0 L 14.625 -9.265625 C 14.625 -12.035156 13.515625 -13.421875 11.296875 -13.421875 C 10.117188 -13.421875 9.179688 -13.03125 8.484375 -12.25 C 7.785156 -11.476562 7.4375 -10.332031 7.4375 -8.8125 L 7.4375 0 L 2.34375 0 L 2.34375 -17.5625 L 7.21875 -17.5625 L 7.21875 -15.53125 C 7.863281 -16.269531 8.660156 -16.835938 9.609375 -17.234375 C 10.554688 -17.628906 11.597656 -17.828125 12.734375 -17.828125 C 13.972656 -17.828125 15.09375 -17.582031 16.09375 -17.09375 C 17.09375 -16.601562 17.894531 -15.890625 18.5 -14.953125 C 19.21875 -15.867188 20.125 -16.578125 21.21875 -17.078125 C 22.320312 -17.578125 23.53125 -17.828125 24.84375 -17.828125 Z M 24.84375 -17.828125 "/></g></g></g><g fill="#004aad" fill-opacity="1"><g transform="translate(194.016408, 56.249999)"><g><path d="M 10.703125 0.265625 C 8.859375 0.265625 7.203125 -0.117188 5.734375 -0.890625 C 4.265625 -1.671875 3.113281 -2.742188 2.28125 -4.109375 C 1.457031 -5.484375 1.046875 -7.039062 1.046875 -8.78125 C 1.046875 -10.519531 1.457031 -12.070312 2.28125 -13.4375 C 3.113281 -14.8125 4.265625 -15.882812 5.734375 -16.65625 C 7.203125 -17.4375 8.859375 -17.828125 10.703125 -17.828125 C 12.554688 -17.828125 14.210938 -17.4375 15.671875 -16.65625 C 17.128906 -15.882812 18.269531 -14.8125 19.09375 -13.4375 C 19.914062 -12.070312 20.328125 -10.519531 20.328125 -8.78125 C 20.328125 -7.039062 19.914062 -5.484375 19.09375 -4.109375 C 18.269531 -2.742188 17.128906 -1.671875 15.671875 -0.890625 C 14.210938 -0.117188 12.554688 0.265625 10.703125 0.265625 Z M 10.703125 -3.921875 C 12.015625 -3.921875 13.085938 -4.359375 13.921875 -5.234375 C 14.753906 -6.117188 15.171875 -7.300781 15.171875 -8.78125 C 15.171875 -10.257812 14.753906 -11.4375 13.921875 -12.3125 C 13.085938 -13.195312 12.015625 -13.640625 10.703125 -13.640625 C 9.398438 -13.640625 8.320312 -13.195312 7.46875 -12.3125 C 6.625 -11.4375 6.203125 -10.257812 6.203125 -8.78125 C 6.203125 -7.300781 6.625 -6.117188 7.46875 -5.234375 C 8.320312 -4.359375 9.398438 -3.921875 10.703125 -3.921875 Z M 10.703125 -3.921875 "/></g></g></g><g fill="#ed5d1d" fill-opacity="1"><g transform="translate(215.400486, 56.249999)"><g><path d="M 10.21875 0.390625 C 8.40625 0.390625 6.65625 0.144531 4.96875 -0.34375 C 3.289062 -0.832031 1.9375 -1.46875 0.90625 -2.25 L 2.703125 -6.234375 C 3.679688 -5.515625 4.84375 -4.9375 6.1875 -4.5 C 7.539062 -4.070312 8.894531 -3.859375 10.25 -3.859375 C 11.75 -3.859375 12.859375 -4.078125 13.578125 -4.515625 C 14.296875 -4.960938 14.65625 -5.554688 14.65625 -6.296875 C 14.65625 -6.835938 14.441406 -7.285156 14.015625 -7.640625 C 13.585938 -8.003906 13.039062 -8.296875 12.375 -8.515625 C 11.71875 -8.734375 10.820312 -8.972656 9.6875 -9.234375 C 7.945312 -9.648438 6.519531 -10.0625 5.40625 -10.46875 C 4.300781 -10.882812 3.351562 -11.550781 2.5625 -12.46875 C 1.769531 -13.382812 1.375 -14.601562 1.375 -16.125 C 1.375 -17.445312 1.734375 -18.644531 2.453125 -19.71875 C 3.171875 -20.800781 4.25 -21.65625 5.6875 -22.28125 C 7.132812 -22.914062 8.90625 -23.234375 11 -23.234375 C 12.457031 -23.234375 13.878906 -23.0625 15.265625 -22.71875 C 16.660156 -22.375 17.882812 -21.875 18.9375 -21.21875 L 17.296875 -17.203125 C 15.191406 -18.398438 13.082031 -19 10.96875 -19 C 9.488281 -19 8.394531 -18.757812 7.6875 -18.28125 C 6.976562 -17.800781 6.625 -17.171875 6.625 -16.390625 C 6.625 -15.597656 7.03125 -15.007812 7.84375 -14.625 C 8.664062 -14.25 9.914062 -13.878906 11.59375 -13.515625 C 13.332031 -13.097656 14.753906 -12.679688 15.859375 -12.265625 C 16.972656 -11.859375 17.925781 -11.207031 18.71875 -10.3125 C 19.507812 -9.414062 19.90625 -8.207031 19.90625 -6.6875 C 19.90625 -5.382812 19.539062 -4.191406 18.8125 -3.109375 C 18.082031 -2.035156 16.988281 -1.179688 15.53125 -0.546875 C 14.070312 0.078125 12.300781 0.390625 10.21875 0.390625 Z M 10.21875 0.390625 "/></g></g></g><g fill="#ed5d1d" fill-opacity="1"><g transform="translate(236.222735, 56.249999)"><g><path d="M 10.703125 0.265625 C 8.859375 0.265625 7.203125 -0.117188 5.734375 -0.890625 C 4.265625 -1.671875 3.113281 -2.742188 2.28125 -4.109375 C 1.457031 -5.484375 1.046875 -7.039062 1.046875 -8.78125 C 1.046875 -10.519531 1.457031 -12.070312 2.28125 -13.4375 C 3.113281 -14.8125 4.265625 -15.882812 5.734375 -16.65625 C 7.203125 -17.4375 8.859375 -17.828125 10.703125 -17.828125 C 12.554688 -17.828125 14.210938 -17.4375 15.671875 -16.65625 C 17.128906 -15.882812 18.269531 -14.8125 19.09375 -13.4375 C 19.914062 -12.070312 20.328125 -10.519531 20.328125 -8.78125 C 20.328125 -7.039062 19.914062 -5.484375 19.09375 -4.109375 C 18.269531 -2.742188 17.128906 -1.671875 15.671875 -0.890625 C 14.210938 -0.117188 12.554688 0.265625 10.703125 0.265625 Z M 10.703125 -3.921875 C 12.015625 -3.921875 13.085938 -4.359375 13.921875 -5.234375 C 14.753906 -6.117188 15.171875 -7.300781 15.171875 -8.78125 C 15.171875 -10.257812 14.753906 -11.4375 13.921875 -12.3125 C 13.085938 -13.195312 12.015625 -13.640625 10.703125 -13.640625 C 9.398438 -13.640625 8.320312 -13.195312 7.46875 -12.3125 C 6.625 -11.4375 6.203125 -10.257812 6.203125 -8.78125 C 6.203125 -7.300781 6.625 -6.117188 7.46875 -5.234375 C 8.320312 -4.359375 9.398438 -3.921875 10.703125 -3.921875 Z M 10.703125 -3.921875 "/></g></g></g><g fill="#ed5d1d" fill-opacity="1"><g transform="translate(257.599816, 56.249999)"><g><path d="M 9.890625 -6.890625 L 7.4375 -4.46875 L 7.4375 0 L 2.34375 0 L 2.34375 -24.21875 L 7.4375 -24.21875 L 7.4375 -10.515625 L 14.890625 -17.5625 L 20.953125 -17.5625 L 13.640625 -10.125 L 21.609375 0 L 15.4375 0 Z M 9.890625 -6.890625 "/></g></g></g><g fill="#ed5d1d" fill-opacity="1"><g transform="translate(278.389187, 56.249999)"><g><path d="M 10.703125 0.265625 C 8.859375 0.265625 7.203125 -0.117188 5.734375 -0.890625 C 4.265625 -1.671875 3.113281 -2.742188 2.28125 -4.109375 C 1.457031 -5.484375 1.046875 -7.039062 1.046875 -8.78125 C 1.046875 -10.519531 1.457031 -12.070312 2.28125 -13.4375 C 3.113281 -14.8125 4.265625 -15.882812 5.734375 -16.65625 C 7.203125 -17.4375 8.859375 -17.828125 10.703125 -17.828125 C 12.554688 -17.828125 14.210938 -17.4375 15.671875 -16.65625 C 17.128906 -15.882812 18.269531 -14.8125 19.09375 -13.4375 C 19.914062 -12.070312 20.328125 -10.519531 20.328125 -8.78125 C 20.328125 -7.039062 19.914062 -5.484375 19.09375 -4.109375 C 18.269531 -2.742188 17.128906 -1.671875 15.671875 -0.890625 C 14.210938 -0.117188 12.554688 0.265625 10.703125 0.265625 Z M 10.703125 -3.921875 C 12.015625 -3.921875 13.085938 -4.359375 13.921875 -5.234375 C 14.753906 -6.117188 15.171875 -7.300781 15.171875 -8.78125 C 15.171875 -10.257812 14.753906 -11.4375 13.921875 -12.3125 C 13.085938 -13.195312 12.015625 -13.640625 10.703125 -13.640625 C 9.398438 -13.640625 8.320312 -13.195312 7.46875 -12.3125 C 6.625 -11.4375 6.203125 -10.257812 6.203125 -8.78125 C 6.203125 -7.300781 6.625 -6.117188 7.46875 -5.234375 C 8.320312 -4.359375 9.398438 -3.921875 10.703125 -3.921875 Z M 10.703125 -3.921875 "/></g></g></g></svg>