<svg xmlns="http://www.w3.org/2000/svg" xmlns:xlink="http://www.w3.org/1999/xlink" width="400" zoomAndPan="magnify" viewBox="0 0 300 74.999997" height="100" preserveAspectRatio="xMidYMid meet" version="1.0"><defs><g/><clipPath id="13d4cd6c52"><path d="M 37.425781 12.089844 L 66.777344 12.089844 L 66.777344 75 L 37.425781 75 Z M 37.425781 12.089844 " clip-rule="nonzero"/></clipPath><clipPath id="bf1e95fa0b"><path d="M 6.777344 12 L 37 12 L 37 75 L 6.777344 75 Z M 6.777344 12 " clip-rule="nonzero"/></clipPath></defs><path fill="#004aad" d="M 54.632812 22.117188 C 56.636719 23.800781 56.894531 26.792969 55.210938 28.796875 C 53.527344 30.800781 50.539062 31.058594 48.535156 29.375 C 46.53125 27.691406 46.269531 24.703125 47.957031 22.699219 C 49.636719 20.695312 52.628906 20.433594 54.632812 22.117188 " fill-opacity="1" fill-rule="nonzero"/><path fill="#004aad" d="M 60.144531 26.941406 C 60.203125 27.0625 60.191406 27.214844 60.097656 27.328125 C 60.003906 27.4375 59.855469 27.476562 59.726562 27.441406 L 59.691406 27.480469 L 58.644531 29.730469 L 57.429688 28.707031 L 59.464844 27.289062 L 59.496094 27.25 C 59.4375 27.125 59.453125 26.976562 59.546875 26.863281 C 59.640625 26.753906 59.785156 26.710938 59.917969 26.75 L 61.632812 24.707031 L 60.398438 22.503906 L 60.992188 24.496094 L 59.582031 24.023438 L 57.375 26.652344 C 57.675781 24.691406 56.980469 22.625 55.355469 21.257812 C 53.753906 19.914062 51.644531 19.574219 49.789062 20.171875 L 51.945312 17.605469 L 50.214844 14.414062 L 58.664062 17.363281 L 63.023438 25.175781 L 61.9375 24.808594 L 60.144531 26.941406 " fill-opacity="1" fill-rule="nonzero"/><g clip-path="url(#13d4cd6c52)"><path fill="#004aad" d="M 48.3125 65.9375 C 48.3125 65.9375 40.773438 63.867188 40.714844 50.15625 C 40.6875 44.308594 41.734375 39.636719 39.910156 31.160156 C 38.082031 22.683594 36.859375 17.195312 37.792969 12.164062 C 37.792969 12.164062 39.46875 23.375 48.3125 28.675781 C 59.421875 35.332031 64.242188 42.558594 63.949219 51.179688 C 63.949219 51.179688 60.476562 42.582031 52.496094 40.339844 C 52.496094 40.339844 51.871094 64.476562 66.871094 75 C 66.871094 75 54.074219 72.765625 45.828125 52.203125 C 45.828125 52.203125 44.660156 61.847656 48.3125 65.9375 " fill-opacity="1" fill-rule="nonzero"/></g><path fill="#ed5d1d" d="M 19.019531 22.117188 C 17.015625 23.800781 16.753906 26.792969 18.4375 28.796875 C 20.121094 30.800781 23.113281 31.058594 25.117188 29.375 C 27.121094 27.691406 27.378906 24.703125 25.695312 22.699219 C 24.011719 20.695312 21.023438 20.433594 19.019531 22.117188 " fill-opacity="1" fill-rule="nonzero"/><path fill="#ed5d1d" d="M 13.503906 26.941406 C 13.445312 27.0625 13.460938 27.214844 13.554688 27.328125 C 13.648438 27.4375 13.792969 27.476562 13.925781 27.441406 L 13.957031 27.480469 L 15.003906 29.730469 L 16.222656 28.707031 L 14.1875 27.289062 L 14.152344 27.25 C 14.210938 27.125 14.199219 26.976562 14.105469 26.863281 C 14.011719 26.753906 13.863281 26.710938 13.734375 26.75 L 12.019531 24.707031 L 13.25 22.503906 L 12.65625 24.496094 L 14.066406 24.023438 L 16.277344 26.652344 C 15.972656 24.691406 16.671875 22.625 18.296875 21.257812 C 19.894531 19.914062 22.007812 19.574219 23.863281 20.171875 L 21.707031 17.605469 L 23.433594 14.414062 L 14.988281 17.363281 L 10.625 25.175781 L 11.714844 24.808594 L 13.503906 26.941406 " fill-opacity="1" fill-rule="nonzero"/><g clip-path="url(#bf1e95fa0b)"><path fill="#ed5d1d" d="M 25.335938 65.9375 C 25.335938 65.9375 32.878906 63.867188 32.9375 50.15625 C 32.960938 44.308594 31.914062 39.636719 33.742188 31.160156 C 35.566406 22.683594 36.789062 17.195312 35.859375 12.164062 C 35.859375 12.164062 34.179688 23.375 25.335938 28.675781 C 14.226562 35.332031 9.410156 42.558594 9.703125 51.179688 C 9.703125 51.179688 13.171875 42.582031 21.15625 40.339844 C 21.15625 40.339844 21.78125 64.476562 6.777344 75 C 6.777344 75 19.574219 72.765625 27.820312 52.203125 C 27.820312 52.203125 28.992188 61.847656 25.335938 65.9375 " fill-opacity="1" fill-rule="nonzero"/></g><path fill="#ed5d1d" d="M 36.621094 9.917969 L 36.792969 11.039062 L 36.945312 9.917969 C 37.242188 7.71875 38.953125 5.976562 41.144531 5.644531 L 42.265625 5.472656 L 41.144531 5.320312 C 38.945312 5.023438 37.203125 3.3125 36.871094 1.121094 L 36.699219 0 L 36.546875 1.121094 C 36.25 3.320312 34.539062 5.0625 32.347656 5.394531 L 31.226562 5.566406 L 32.347656 5.71875 C 34.546875 6.015625 36.289062 7.726562 36.621094 9.917969 " fill-opacity="1" fill-rule="nonzero"/><g fill="#000000" fill-opacity="1"><g transform="translate(74.295023, 50.999996)"><g><path d="M 27.125 0 L 23.03125 -18.703125 L 15.140625 1.546875 L 7.21875 -18.703125 L 3.171875 0 L 0.390625 0 L 6.53125 -28.015625 L 15.140625 -5.53125 L 23.765625 -28.015625 L 29.875 0 Z M 27.125 0 "/></g></g></g><g fill="#000000" fill-opacity="1"><g transform="translate(104.547546, 50.999996)"><g><path d="M 16.421875 -8.5 C 16.421875 -10.144531 15.851562 -11.585938 14.71875 -12.828125 C 13.5625 -14.066406 12.132812 -14.6875 10.4375 -14.6875 C 8.726562 -14.6875 7.3125 -14.066406 6.1875 -12.828125 C 5.019531 -11.585938 4.4375 -10.144531 4.4375 -8.5 C 4.4375 -6.851562 5.019531 -5.410156 6.1875 -4.171875 C 7.3125 -2.929688 8.726562 -2.3125 10.4375 -2.3125 C 12.132812 -2.3125 13.5625 -2.929688 14.71875 -4.171875 C 15.851562 -5.410156 16.421875 -6.851562 16.421875 -8.5 Z M 19.125 0 L 16.421875 0 L 16.421875 -2.890625 C 16.265625 -2.691406 16.109375 -2.5 15.953125 -2.3125 C 14.335938 -0.507812 12.359375 0.390625 10.015625 0.390625 C 7.660156 0.390625 5.6875 -0.507812 4.09375 -2.3125 C 2.519531 -4.070312 1.734375 -6.132812 1.734375 -8.5 C 1.734375 -10.875 2.519531 -12.9375 4.09375 -14.6875 C 5.6875 -16.488281 7.660156 -17.390625 10.015625 -17.390625 C 12.359375 -17.390625 14.335938 -16.488281 15.953125 -14.6875 C 16.109375 -14.5 16.265625 -14.304688 16.421875 -14.109375 L 16.421875 -17 L 19.125 -17 Z M 19.125 0 "/></g></g></g><g fill="#000000" fill-opacity="1"><g transform="translate(126.570451, 50.999996)"><g><path d="M 5.375 -2.4375 C 6.039062 -1.96875 6.914062 -1.734375 8 -1.734375 C 10.46875 -1.734375 11.703125 -2.660156 11.703125 -4.515625 C 11.703125 -5.597656 10.816406 -6.425781 9.046875 -7 C 8.296875 -7.25 7.492188 -7.476562 6.640625 -7.6875 C 5.765625 -7.894531 4.957031 -8.164062 4.21875 -8.5 C 3.332031 -8.914062 2.671875 -9.429688 2.234375 -10.046875 C 1.796875 -10.660156 1.578125 -11.394531 1.578125 -12.25 C 1.578125 -13.945312 2.171875 -15.222656 3.359375 -16.078125 C 4.546875 -16.953125 5.960938 -17.390625 7.609375 -17.390625 C 9.253906 -17.390625 10.617188 -17.054688 11.703125 -16.390625 C 12.785156 -15.710938 13.519531 -14.515625 13.90625 -12.796875 L 11.015625 -12.796875 C 10.703125 -13.742188 10.25 -14.375 9.65625 -14.6875 C 9.09375 -14.988281 8.382812 -15.140625 7.53125 -15.140625 C 6.6875 -15.140625 5.96875 -14.960938 5.375 -14.609375 C 4.75 -14.222656 4.4375 -13.65625 4.4375 -12.90625 C 4.4375 -12.132812 4.695312 -11.566406 5.21875 -11.203125 C 5.707031 -10.867188 6.328125 -10.570312 7.078125 -10.3125 C 7.816406 -10.082031 8.625 -9.878906 9.5 -9.703125 C 10.351562 -9.492188 11.164062 -9.207031 11.9375 -8.84375 C 13.6875 -8.019531 14.5625 -6.695312 14.5625 -4.875 C 14.5625 -3.039062 13.90625 -1.6875 12.59375 -0.8125 C 11.925781 -0.375 11.191406 -0.0390625 10.390625 0.1875 C 9.617188 0.394531 8.769531 0.5 7.84375 0.5 C 3.90625 0.5 1.640625 -1.25 1.046875 -4.75 L 3.90625 -4.75 C 4.1875 -3.644531 4.675781 -2.875 5.375 -2.4375 Z M 5.375 -2.4375 "/></g></g></g><g fill="#000000" fill-opacity="1"><g transform="translate(142.102394, 50.999996)"><g><path d="M 16.8125 -8.578125 C 16.8125 -10.273438 16.207031 -11.726562 15 -12.9375 C 13.78125 -14.15625 12.320312 -14.765625 10.625 -14.765625 C 8.925781 -14.765625 7.472656 -14.15625 6.265625 -12.9375 C 5.046875 -11.726562 4.4375 -10.273438 4.4375 -8.578125 C 4.4375 -6.898438 5.046875 -5.457031 6.265625 -4.25 C 7.472656 -3.039062 8.925781 -2.4375 10.625 -2.4375 C 12.320312 -2.4375 13.78125 -3.039062 15 -4.25 C 16.207031 -5.457031 16.8125 -6.898438 16.8125 -8.578125 Z M 19.515625 -8.578125 C 19.515625 -6.109375 18.648438 -4.019531 16.921875 -2.3125 C 15.148438 -0.59375 13.050781 0.265625 10.625 0.265625 C 8.207031 0.265625 6.117188 -0.59375 4.359375 -2.3125 C 2.609375 -4.019531 1.734375 -6.109375 1.734375 -8.578125 C 1.734375 -11.023438 2.609375 -13.125 4.359375 -14.875 C 6.085938 -16.601562 8.175781 -17.46875 10.625 -17.46875 C 13.070312 -17.46875 15.171875 -16.601562 16.921875 -14.875 C 18.648438 -13.125 19.515625 -11.023438 19.515625 -8.578125 Z M 19.515625 -8.578125 "/></g></g></g><g fill="#000000" fill-opacity="1"><g transform="translate(163.352571, 50.999996)"><g><path d="M 24.453125 -0.078125 L 24.453125 -10.703125 C 24.453125 -12.453125 23.898438 -13.6875 22.796875 -14.40625 C 22.410156 -14.644531 21.816406 -14.765625 21.015625 -14.765625 C 20.222656 -14.765625 19.476562 -14.53125 18.78125 -14.0625 C 18.082031 -13.601562 17.53125 -13.007812 17.125 -12.28125 C 16.96875 -12 16.820312 -11.691406 16.6875 -11.359375 C 16.6875 -11.148438 16.6875 -10.929688 16.6875 -10.703125 L 16.6875 -0.078125 L 13.984375 -0.078125 L 13.984375 -10.703125 C 13.984375 -12.453125 13.429688 -13.6875 12.328125 -14.40625 C 11.941406 -14.644531 11.347656 -14.765625 10.546875 -14.765625 C 9.742188 -14.765625 9 -14.53125 8.3125 -14.0625 C 7.613281 -13.601562 7.054688 -13.007812 6.640625 -12.28125 C 6.097656 -11.332031 5.753906 -10.160156 5.609375 -8.765625 L 5.609375 -0.078125 L 2.890625 -0.078125 L 2.890625 -17.078125 L 5.609375 -17.078125 L 5.609375 -14.375 C 6.117188 -15.25 6.757812 -15.957031 7.53125 -16.5 C 8.40625 -17.144531 9.4375 -17.46875 10.625 -17.46875 C 11.8125 -17.46875 12.765625 -17.285156 13.484375 -16.921875 C 14.203125 -16.535156 14.804688 -16.035156 15.296875 -15.421875 C 15.554688 -15.054688 15.789062 -14.65625 16 -14.21875 C 16.507812 -15.144531 17.175781 -15.90625 18 -16.5 C 18.882812 -17.144531 19.914062 -17.46875 21.09375 -17.46875 C 22.28125 -17.46875 23.234375 -17.285156 23.953125 -16.921875 C 24.679688 -16.535156 25.285156 -16.035156 25.765625 -15.421875 C 26.703125 -14.203125 27.171875 -12.628906 27.171875 -10.703125 L 27.171875 -0.078125 Z M 24.453125 -0.078125 "/></g></g></g><g fill="#000000" fill-opacity="1"><g transform="translate(192.832354, 50.999996)"><g><path d="M 16.8125 -8.578125 C 16.8125 -10.273438 16.207031 -11.726562 15 -12.9375 C 13.78125 -14.15625 12.320312 -14.765625 10.625 -14.765625 C 8.925781 -14.765625 7.472656 -14.15625 6.265625 -12.9375 C 5.046875 -11.726562 4.4375 -10.273438 4.4375 -8.578125 C 4.4375 -6.898438 5.046875 -5.457031 6.265625 -4.25 C 7.472656 -3.039062 8.925781 -2.4375 10.625 -2.4375 C 12.320312 -2.4375 13.78125 -3.039062 15 -4.25 C 16.207031 -5.457031 16.8125 -6.898438 16.8125 -8.578125 Z M 19.515625 -8.578125 C 19.515625 -6.109375 18.648438 -4.019531 16.921875 -2.3125 C 15.148438 -0.59375 13.050781 0.265625 10.625 0.265625 C 8.207031 0.265625 6.117188 -0.59375 4.359375 -2.3125 C 2.609375 -4.019531 1.734375 -6.109375 1.734375 -8.578125 C 1.734375 -11.023438 2.609375 -13.125 4.359375 -14.875 C 6.085938 -16.601562 8.175781 -17.46875 10.625 -17.46875 C 13.070312 -17.46875 15.171875 -16.601562 16.921875 -14.875 C 18.648438 -13.125 19.515625 -11.023438 19.515625 -8.578125 Z M 19.515625 -8.578125 "/></g></g></g><g fill="#ed5d1d" fill-opacity="1"><g transform="translate(214.087984, 50.999996)"><g><path d="M 10.203125 -12.40625 C 4.835938 -13.644531 2.15625 -15.9375 2.15625 -19.28125 C 2.15625 -21.75 3.019531 -23.601562 4.75 -24.84375 C 6.476562 -26.050781 8.5 -26.65625 10.8125 -26.65625 C 15.945312 -26.65625 18.988281 -24.75 19.9375 -20.9375 L 17 -20.9375 C 16.488281 -23.207031 14.425781 -24.34375 10.8125 -24.34375 C 8.289062 -24.34375 6.53125 -23.597656 5.53125 -22.109375 C 5.144531 -21.535156 4.953125 -20.828125 4.953125 -19.984375 C 4.953125 -18.359375 5.828125 -17.109375 7.578125 -16.234375 C 8.398438 -15.796875 10.148438 -15.226562 12.828125 -14.53125 C 15.503906 -13.832031 17.445312 -13.054688 18.65625 -12.203125 C 20.332031 -11.023438 21.171875 -9.363281 21.171875 -7.21875 C 21.171875 -4.570312 20.128906 -2.566406 18.046875 -1.203125 C 16.296875 -0.0664062 14.128906 0.5 11.546875 0.5 C 5.734375 0.5 2.363281 -1.710938 1.4375 -6.140625 L 4.640625 -6.140625 C 5.128906 -3.359375 7.429688 -1.96875 11.546875 -1.96875 C 14.484375 -1.96875 16.535156 -2.78125 17.703125 -4.40625 C 18.160156 -5.050781 18.390625 -5.925781 18.390625 -7.03125 C 18.390625 -8.113281 17.96875 -9.003906 17.125 -9.703125 C 15.90625 -10.679688 13.597656 -11.582031 10.203125 -12.40625 Z M 10.203125 -12.40625 "/></g></g></g><g fill="#ed5d1d" fill-opacity="1"><g transform="translate(236.265442, 50.999996)"><g><path d="M 16.8125 -8.578125 C 16.8125 -10.273438 16.207031 -11.726562 15 -12.9375 C 13.78125 -14.15625 12.320312 -14.765625 10.625 -14.765625 C 8.925781 -14.765625 7.472656 -14.15625 6.265625 -12.9375 C 5.046875 -11.726562 4.4375 -10.273438 4.4375 -8.578125 C 4.4375 -6.898438 5.046875 -5.457031 6.265625 -4.25 C 7.472656 -3.039062 8.925781 -2.4375 10.625 -2.4375 C 12.320312 -2.4375 13.78125 -3.039062 15 -4.25 C 16.207031 -5.457031 16.8125 -6.898438 16.8125 -8.578125 Z M 19.515625 -8.578125 C 19.515625 -6.109375 18.648438 -4.019531 16.921875 -2.3125 C 15.148438 -0.59375 13.050781 0.265625 10.625 0.265625 C 8.207031 0.265625 6.117188 -0.59375 4.359375 -2.3125 C 2.609375 -4.019531 1.734375 -6.109375 1.734375 -8.578125 C 1.734375 -11.023438 2.609375 -13.125 4.359375 -14.875 C 6.085938 -16.601562 8.175781 -17.46875 10.625 -17.46875 C 13.070312 -17.46875 15.171875 -16.601562 16.921875 -14.875 C 18.648438 -13.125 19.515625 -11.023438 19.515625 -8.578125 Z M 19.515625 -8.578125 "/></g></g></g><g fill="#ed5d1d" fill-opacity="1"><g transform="translate(257.515619, 50.999996)"><g><path d="M 5.609375 0 L 2.890625 0 L 2.890625 -28.984375 L 5.609375 -28.984375 L 5.609375 -9.390625 L 11.828125 -17.046875 L 15.421875 -17.046875 L 8.421875 -8.765625 L 15.875 0 L 12.28125 0 L 5.609375 -8.15625 Z M 5.609375 0 "/></g></g></g><g fill="#ed5d1d" fill-opacity="1"><g transform="translate(273.781666, 50.999996)"><g><path d="M 16.8125 -8.578125 C 16.8125 -10.273438 16.207031 -11.726562 15 -12.9375 C 13.78125 -14.15625 12.320312 -14.765625 10.625 -14.765625 C 8.925781 -14.765625 7.472656 -14.15625 6.265625 -12.9375 C 5.046875 -11.726562 4.4375 -10.273438 4.4375 -8.578125 C 4.4375 -6.898438 5.046875 -5.457031 6.265625 -4.25 C 7.472656 -3.039062 8.925781 -2.4375 10.625 -2.4375 C 12.320312 -2.4375 13.78125 -3.039062 15 -4.25 C 16.207031 -5.457031 16.8125 -6.898438 16.8125 -8.578125 Z M 19.515625 -8.578125 C 19.515625 -6.109375 18.648438 -4.019531 16.921875 -2.3125 C 15.148438 -0.59375 13.050781 0.265625 10.625 0.265625 C 8.207031 0.265625 6.117188 -0.59375 4.359375 -2.3125 C 2.609375 -4.019531 1.734375 -6.109375 1.734375 -8.578125 C 1.734375 -11.023438 2.609375 -13.125 4.359375 -14.875 C 6.085938 -16.601562 8.175781 -17.46875 10.625 -17.46875 C 13.070312 -17.46875 15.171875 -16.601562 16.921875 -14.875 C 18.648438 -13.125 19.515625 -11.023438 19.515625 -8.578125 Z M 19.515625 -8.578125 "/></g></g></g></svg>