<svg xmlns="http://www.w3.org/2000/svg" xmlns:xlink="http://www.w3.org/1999/xlink" width="1000" zoomAndPan="magnify" viewBox="0 0 750 104.999996" height="140" preserveAspectRatio="xMidYMid meet" version="1.0"><defs><g/><clipPath id="18ef00cc9a"><path d="M 5.59375 0 L 150 0 L 150 104.25 L 5.59375 104.25 Z M 5.59375 0 " clip-rule="nonzero"/></clipPath><clipPath id="7eed89cb2d"><path d="M 132 1 L 250.09375 1 L 250.09375 103 L 132 103 Z M 132 1 " clip-rule="nonzero"/></clipPath><clipPath id="5c215a6fa8"><rect x="0" width="479" y="0" height="92"/></clipPath></defs><g clip-path="url(#18ef00cc9a)"><path fill="#004180" d="M 131.984375 82.417969 L 118.136719 31.453125 L 89.339844 97.5625 C 88.292969 99.707031 87.097656 101.351562 85.65625 102.546875 C 84.210938 103.691406 82.417969 104.289062 80.273438 104.289062 C 76.089844 104.289062 73.050781 102.046875 71.207031 97.5625 L 42.511719 31.453125 L 23.082031 102.894531 L 5.59375 102.894531 L 31.75 7.292969 C 32.945312 2.460938 35.886719 0.0195312 40.566406 0.0195312 C 42.410156 0.0195312 44.15625 0.515625 45.800781 1.5625 C 47.441406 2.609375 48.6875 4.105469 49.484375 6.046875 L 80.820312 77.886719 L 112.15625 6.046875 C 113.800781 2.011719 116.640625 0.0195312 120.628906 0.0195312 C 124.910156 0.0195312 127.75 2.460938 129.144531 7.292969 L 149.570312 82.417969 Z M 131.984375 82.417969 " fill-opacity="1" fill-rule="evenodd"/></g><g clip-path="url(#7eed89cb2d)"><path fill="#ff751f" d="M 137.566406 102.894531 L 132.734375 85.160156 L 218.671875 85.160156 C 223.402344 85.160156 227.089844 83.964844 229.632812 81.523438 C 232.171875 79.082031 233.46875 75.894531 233.46875 71.859375 C 233.46875 67.472656 232.171875 64.1875 229.632812 61.992188 C 227.089844 59.800781 223.402344 58.707031 218.671875 58.707031 L 170.644531 58.707031 C 165.914062 58.707031 161.578125 57.957031 157.691406 56.5625 C 153.808594 55.117188 150.570312 53.125 147.929688 50.535156 C 145.289062 47.996094 143.246094 44.90625 141.800781 41.367188 C 140.355469 37.832031 139.660156 33.945312 139.660156 29.761719 C 139.660156 25.675781 140.355469 21.839844 141.699219 18.351562 C 143.046875 14.863281 145.039062 11.875 147.730469 9.335938 C 150.371094 6.792969 153.65625 4.851562 157.59375 3.40625 C 161.527344 1.960938 165.960938 1.265625 170.996094 1.265625 L 245.226562 1.265625 L 245.226562 19 L 170.945312 19 C 166.859375 19 163.671875 20.097656 161.429688 22.289062 C 159.1875 24.480469 158.089844 27.519531 158.089844 31.453125 C 158.089844 35.390625 159.238281 38.378906 161.527344 40.523438 C 163.820312 42.664062 166.910156 43.761719 170.84375 43.761719 L 218.722656 43.761719 C 229.082031 43.761719 236.90625 46.199219 242.285156 51.035156 C 247.664062 55.867188 250.304688 63.238281 250.304688 73.101562 C 250.304688 77.386719 249.660156 81.375 248.363281 85.011719 C 247.066406 88.648438 245.125 91.785156 242.484375 94.425781 C 239.894531 97.066406 236.605469 99.160156 232.621094 100.652344 C 228.636719 102.148438 214.933594 102.945312 209.605469 102.945312 Z M 137.566406 102.894531 " fill-opacity="1" fill-rule="evenodd"/></g><g transform="matrix(1, 0, 0, 1, 271, 6)"><g clip-path="url(#5c215a6fa8)"><g fill="#004180" fill-opacity="1"><g transform="translate(0.202131, 74.999638)"><g><path d="M 58.03125 -52.6875 C 60.425781 -52.6875 61.648438 -51.460938 61.703125 -49.015625 L 63.765625 0 L 54.671875 0 L 52.84375 -45.125 L 51.390625 -45.125 L 41.546875 -9.78125 C 41.085938 -7.6875 39.785156 -6.640625 37.640625 -6.640625 L 30.921875 -6.640625 C 28.734375 -6.640625 27.382812 -7.6875 26.875 -9.78125 L 17.03125 -45.125 L 15.578125 -45.125 L 13.890625 0 L 4.8125 0 L 6.875 -49.015625 C 6.976562 -51.460938 8.195312 -52.6875 10.53125 -52.6875 L 20.078125 -52.6875 C 22.117188 -52.6875 23.394531 -51.644531 23.90625 -49.5625 L 32 -20.6875 C 32.351562 -19.46875 32.644531 -18.25 32.875 -17.03125 C 33.101562 -15.8125 33.367188 -14.585938 33.671875 -13.359375 L 34.8125 -13.359375 C 35.125 -14.585938 35.40625 -15.8125 35.65625 -17.03125 C 35.914062 -18.25 36.195312 -19.492188 36.5 -20.765625 L 44.59375 -49.5625 C 45.050781 -51.644531 46.347656 -52.6875 48.484375 -52.6875 Z M 58.03125 -52.6875 "/></g></g></g><g fill="#004180" fill-opacity="1"><g transform="translate(68.852001, 74.999638)"><g><path d="M 24.046875 -38.40625 C 27.054688 -38.40625 29.601562 -38.007812 31.6875 -37.21875 C 33.769531 -36.4375 35.332031 -35.101562 36.375 -33.21875 C 37.425781 -31.332031 37.953125 -28.734375 37.953125 -25.421875 L 37.953125 0 L 30.625 0 L 29.328125 -8.09375 L 28.640625 -9.15625 L 28.640625 -25.5 C 28.640625 -27.488281 28.179688 -28.925781 27.265625 -29.8125 C 26.347656 -30.707031 24.585938 -31.15625 21.984375 -31.15625 C 20.054688 -31.15625 17.628906 -31.078125 14.703125 -30.921875 C 11.773438 -30.773438 8.832031 -30.570312 5.875 -30.3125 L 5.046875 -36.65625 C 6.828125 -37.007812 8.835938 -37.3125 11.078125 -37.5625 C 13.316406 -37.820312 15.578125 -38.023438 17.859375 -38.171875 C 20.148438 -38.328125 22.210938 -38.40625 24.046875 -38.40625 Z M 33.984375 -23.0625 L 33.90625 -17.328125 L 16.71875 -17.328125 C 15.195312 -17.273438 14.101562 -16.867188 13.4375 -16.109375 C 12.78125 -15.347656 12.453125 -14.304688 12.453125 -12.984375 L 12.453125 -10.921875 C 12.453125 -9.390625 12.859375 -8.242188 13.671875 -7.484375 C 14.484375 -6.722656 15.753906 -6.34375 17.484375 -6.34375 C 18.859375 -6.34375 20.382812 -6.609375 22.0625 -7.140625 C 23.75 -7.671875 25.414062 -8.472656 27.0625 -9.546875 C 28.71875 -10.617188 30.207031 -11.890625 31.53125 -13.359375 L 31.53125 -8.546875 C 31.019531 -7.785156 30.28125 -6.882812 29.3125 -5.84375 C 28.351562 -4.800781 27.171875 -3.769531 25.765625 -2.75 C 24.367188 -1.726562 22.765625 -0.882812 20.953125 -0.21875 C 19.148438 0.4375 17.15625 0.765625 14.96875 0.765625 C 12.726562 0.765625 10.71875 0.367188 8.9375 -0.421875 C 7.15625 -1.210938 5.753906 -2.382812 4.734375 -3.9375 C 3.710938 -5.488281 3.203125 -7.410156 3.203125 -9.703125 L 3.203125 -13.671875 C 3.203125 -16.617188 4.179688 -18.921875 6.140625 -20.578125 C 8.109375 -22.234375 10.796875 -23.0625 14.203125 -23.0625 Z M 33.984375 -23.0625 "/></g></g></g><g fill="#004180" fill-opacity="1"><g transform="translate(111.691349, 74.999638)"><g><path d="M 18.703125 -38.40625 C 20.429688 -38.40625 22.300781 -38.351562 24.3125 -38.25 C 26.332031 -38.15625 28.304688 -38.015625 30.234375 -37.828125 C 32.171875 -37.648438 33.90625 -37.410156 35.4375 -37.109375 L 34.8125 -31.078125 C 32.375 -31.128906 29.945312 -31.191406 27.53125 -31.265625 C 25.113281 -31.347656 22.734375 -31.390625 20.390625 -31.390625 C 18.296875 -31.390625 16.648438 -31.335938 15.453125 -31.234375 C 14.265625 -31.128906 13.425781 -30.820312 12.9375 -30.3125 C 12.457031 -29.800781 12.21875 -28.9375 12.21875 -27.71875 C 12.21875 -26.238281 12.625 -25.253906 13.4375 -24.765625 C 14.25 -24.285156 15.570312 -23.816406 17.40625 -23.359375 L 27.640625 -21 C 30.742188 -20.238281 33.019531 -19.082031 34.46875 -17.53125 C 35.925781 -15.976562 36.65625 -13.597656 36.65625 -10.390625 C 36.65625 -7.285156 36.082031 -4.929688 34.9375 -3.328125 C 33.789062 -1.722656 31.984375 -0.625 29.515625 -0.03125 C 27.046875 0.550781 23.898438 0.84375 20.078125 0.84375 C 18.609375 0.84375 16.421875 0.773438 13.515625 0.640625 C 10.609375 0.515625 7.425781 0.175781 3.96875 -0.375 L 4.578125 -6.421875 C 5.597656 -6.421875 6.804688 -6.394531 8.203125 -6.34375 C 9.609375 -6.289062 11.113281 -6.265625 12.71875 -6.265625 C 14.320312 -6.265625 15.960938 -6.265625 17.640625 -6.265625 C 20.335938 -6.265625 22.410156 -6.351562 23.859375 -6.53125 C 25.304688 -6.707031 26.3125 -7.085938 26.875 -7.671875 C 27.4375 -8.253906 27.71875 -9.109375 27.71875 -10.234375 C 27.71875 -11.660156 27.242188 -12.613281 26.296875 -13.09375 C 25.359375 -13.582031 23.972656 -14.054688 22.140625 -14.515625 L 12.140625 -16.953125 C 9.847656 -17.566406 8.066406 -18.34375 6.796875 -19.28125 C 5.523438 -20.21875 4.609375 -21.382812 4.046875 -22.78125 C 3.484375 -24.1875 3.203125 -25.910156 3.203125 -27.953125 C 3.203125 -30.703125 3.722656 -32.835938 4.765625 -34.359375 C 5.816406 -35.890625 7.472656 -36.957031 9.734375 -37.5625 C 12.003906 -38.175781 14.992188 -38.457031 18.703125 -38.40625 Z M 18.703125 -38.40625 "/></g></g></g><g fill="#004180" fill-opacity="1"><g transform="translate(151.476202, 74.999638)"><g><path d="M 22.140625 -38.40625 C 26.722656 -38.40625 30.375 -37.769531 33.09375 -36.5 C 35.820312 -35.226562 37.785156 -33.140625 38.984375 -30.234375 C 40.179688 -27.335938 40.78125 -23.492188 40.78125 -18.703125 C 40.78125 -13.921875 40.179688 -10.09375 38.984375 -7.21875 C 37.785156 -4.34375 35.820312 -2.253906 33.09375 -0.953125 C 30.375 0.347656 26.722656 1 22.140625 1 C 17.660156 1 14.054688 0.347656 11.328125 -0.953125 C 8.609375 -2.253906 6.640625 -4.34375 5.421875 -7.21875 C 4.203125 -10.09375 3.59375 -13.921875 3.59375 -18.703125 C 3.59375 -23.492188 4.203125 -27.335938 5.421875 -30.234375 C 6.640625 -33.140625 8.609375 -35.226562 11.328125 -36.5 C 14.054688 -37.769531 17.660156 -38.40625 22.140625 -38.40625 Z M 22.140625 -31.390625 C 19.898438 -31.390625 18.128906 -31.019531 16.828125 -30.28125 C 15.535156 -29.539062 14.609375 -28.253906 14.046875 -26.421875 C 13.484375 -24.585938 13.203125 -22.015625 13.203125 -18.703125 C 13.203125 -15.398438 13.484375 -12.832031 14.046875 -11 C 14.609375 -9.164062 15.535156 -7.890625 16.828125 -7.171875 C 18.128906 -6.460938 19.898438 -6.109375 22.140625 -6.109375 C 24.429688 -6.109375 26.238281 -6.460938 27.5625 -7.171875 C 28.882812 -7.890625 29.8125 -9.164062 30.34375 -11 C 30.882812 -12.832031 31.15625 -15.398438 31.15625 -18.703125 C 31.15625 -22.015625 30.882812 -24.585938 30.34375 -26.421875 C 29.8125 -28.253906 28.882812 -29.539062 27.5625 -30.28125 C 26.238281 -31.019531 24.429688 -31.390625 22.140625 -31.390625 Z M 22.140625 -31.390625 "/></g></g></g><g fill="#004180" fill-opacity="1"><g transform="translate(195.766446, 74.999638)"><g><path d="M 51.921875 -38.40625 C 55.234375 -38.40625 57.765625 -37.523438 59.515625 -35.765625 C 61.273438 -34.015625 62.15625 -31.457031 62.15625 -28.09375 L 62.15625 0 L 53 0 L 53 -25.28125 C 52.945312 -27.15625 52.5625 -28.515625 51.84375 -29.359375 C 51.132812 -30.203125 49.890625 -30.625 48.109375 -30.625 C 47.035156 -30.625 46.003906 -30.457031 45.015625 -30.125 C 44.023438 -29.789062 42.914062 -29.265625 41.6875 -28.546875 C 40.46875 -27.835938 38.992188 -26.898438 37.265625 -25.734375 L 36.734375 -31.3125 C 39.328125 -33.695312 41.832031 -35.472656 44.25 -36.640625 C 46.664062 -37.816406 49.222656 -38.40625 51.921875 -38.40625 Z M 12.59375 -37.5 L 13.515625 -30.15625 L 14.4375 -29.09375 L 14.4375 0 L 5.1875 0 L 5.1875 -37.5 Z M 28.03125 -38.40625 C 31.28125 -38.40625 33.769531 -37.539062 35.5 -35.8125 C 37.238281 -34.082031 38.128906 -31.507812 38.171875 -28.09375 L 38.171875 0 L 29.25 0 L 29.25 -25.28125 C 29.25 -27.257812 28.835938 -28.644531 28.015625 -29.4375 C 27.203125 -30.226562 25.984375 -30.625 24.359375 -30.625 C 23.335938 -30.625 22.316406 -30.46875 21.296875 -30.15625 C 20.285156 -29.851562 19.164062 -29.34375 17.9375 -28.625 C 16.71875 -27.914062 15.191406 -26.953125 13.359375 -25.734375 L 12.828125 -31.3125 C 15.367188 -33.695312 17.863281 -35.472656 20.3125 -36.640625 C 22.757812 -37.816406 25.332031 -38.40625 28.03125 -38.40625 Z M 28.03125 -38.40625 "/></g></g></g><g fill="#004180" fill-opacity="1"><g transform="translate(262.889068, 74.999638)"><g><path d="M 22.140625 -38.40625 C 26.722656 -38.40625 30.375 -37.769531 33.09375 -36.5 C 35.820312 -35.226562 37.785156 -33.140625 38.984375 -30.234375 C 40.179688 -27.335938 40.78125 -23.492188 40.78125 -18.703125 C 40.78125 -13.921875 40.179688 -10.09375 38.984375 -7.21875 C 37.785156 -4.34375 35.820312 -2.253906 33.09375 -0.953125 C 30.375 0.347656 26.722656 1 22.140625 1 C 17.660156 1 14.054688 0.347656 11.328125 -0.953125 C 8.609375 -2.253906 6.640625 -4.34375 5.421875 -7.21875 C 4.203125 -10.09375 3.59375 -13.921875 3.59375 -18.703125 C 3.59375 -23.492188 4.203125 -27.335938 5.421875 -30.234375 C 6.640625 -33.140625 8.609375 -35.226562 11.328125 -36.5 C 14.054688 -37.769531 17.660156 -38.40625 22.140625 -38.40625 Z M 22.140625 -31.390625 C 19.898438 -31.390625 18.128906 -31.019531 16.828125 -30.28125 C 15.535156 -29.539062 14.609375 -28.253906 14.046875 -26.421875 C 13.484375 -24.585938 13.203125 -22.015625 13.203125 -18.703125 C 13.203125 -15.398438 13.484375 -12.832031 14.046875 -11 C 14.609375 -9.164062 15.535156 -7.890625 16.828125 -7.171875 C 18.128906 -6.460938 19.898438 -6.109375 22.140625 -6.109375 C 24.429688 -6.109375 26.238281 -6.460938 27.5625 -7.171875 C 28.882812 -7.890625 29.8125 -9.164062 30.34375 -11 C 30.882812 -12.832031 31.15625 -15.398438 31.15625 -18.703125 C 31.15625 -22.015625 30.882812 -24.585938 30.34375 -26.421875 C 29.8125 -28.253906 28.882812 -29.539062 27.5625 -30.28125 C 26.238281 -31.019531 24.429688 -31.390625 22.140625 -31.390625 Z M 22.140625 -31.390625 "/></g></g></g><g fill="#ff751f" fill-opacity="1"><g transform="translate(306.734216, 74.999638)"><g><path d="M 22.0625 -53.6875 C 24.664062 -53.632812 27.40625 -53.476562 30.28125 -53.21875 C 33.15625 -52.96875 35.96875 -52.484375 38.71875 -51.765625 L 38.109375 -45.28125 C 35.910156 -45.332031 33.375 -45.394531 30.5 -45.46875 C 27.625 -45.550781 24.863281 -45.59375 22.21875 -45.59375 C 20.59375 -45.59375 19.207031 -45.539062 18.0625 -45.4375 C 16.914062 -45.332031 15.984375 -45.078125 15.265625 -44.671875 C 14.554688 -44.265625 14.035156 -43.640625 13.703125 -42.796875 C 13.367188 -41.960938 13.203125 -40.804688 13.203125 -39.328125 C 13.203125 -37.035156 13.671875 -35.40625 14.609375 -34.4375 C 15.554688 -33.46875 17.101562 -32.703125 19.25 -32.140625 L 29.625 -29.09375 C 33.800781 -27.820312 36.675781 -25.976562 38.25 -23.5625 C 39.832031 -21.144531 40.625 -17.921875 40.625 -13.890625 C 40.625 -10.890625 40.265625 -8.421875 39.546875 -6.484375 C 38.835938 -4.554688 37.742188 -3.054688 36.265625 -1.984375 C 34.796875 -0.910156 32.863281 -0.144531 30.46875 0.3125 C 28.070312 0.769531 25.195312 1 21.84375 1 C 20.113281 1 17.734375 0.894531 14.703125 0.6875 C 11.671875 0.476562 8.222656 -0.03125 4.359375 -0.84375 L 4.96875 -7.71875 C 7.96875 -7.613281 10.484375 -7.519531 12.515625 -7.4375 C 14.554688 -7.363281 16.3125 -7.328125 17.78125 -7.328125 C 19.257812 -7.328125 20.640625 -7.328125 21.921875 -7.328125 C 24.253906 -7.328125 26.082031 -7.476562 27.40625 -7.78125 C 28.726562 -8.09375 29.65625 -8.734375 30.1875 -9.703125 C 30.726562 -10.671875 31 -12.066406 31 -13.890625 C 31 -15.472656 30.804688 -16.707031 30.421875 -17.59375 C 30.046875 -18.488281 29.425781 -19.191406 28.5625 -19.703125 C 27.695312 -20.210938 26.578125 -20.644531 25.203125 -21 L 14.4375 -24.28125 C 10.457031 -25.5 7.664062 -27.304688 6.0625 -29.703125 C 4.46875 -32.097656 3.671875 -35.304688 3.671875 -39.328125 C 3.671875 -42.328125 4.023438 -44.78125 4.734375 -46.6875 C 5.441406 -48.601562 6.535156 -50.054688 8.015625 -51.046875 C 9.492188 -52.035156 11.390625 -52.722656 13.703125 -53.109375 C 16.023438 -53.492188 18.8125 -53.6875 22.0625 -53.6875 Z M 22.0625 -53.6875 "/></g></g></g><g fill="#ff751f" fill-opacity="1"><g transform="translate(350.642635, 74.999638)"><g><path d="M 22.140625 -38.40625 C 26.722656 -38.40625 30.375 -37.769531 33.09375 -36.5 C 35.820312 -35.226562 37.785156 -33.140625 38.984375 -30.234375 C 40.179688 -27.335938 40.78125 -23.492188 40.78125 -18.703125 C 40.78125 -13.921875 40.179688 -10.09375 38.984375 -7.21875 C 37.785156 -4.34375 35.820312 -2.253906 33.09375 -0.953125 C 30.375 0.347656 26.722656 1 22.140625 1 C 17.660156 1 14.054688 0.347656 11.328125 -0.953125 C 8.609375 -2.253906 6.640625 -4.34375 5.421875 -7.21875 C 4.203125 -10.09375 3.59375 -13.921875 3.59375 -18.703125 C 3.59375 -23.492188 4.203125 -27.335938 5.421875 -30.234375 C 6.640625 -33.140625 8.609375 -35.226562 11.328125 -36.5 C 14.054688 -37.769531 17.660156 -38.40625 22.140625 -38.40625 Z M 22.140625 -31.390625 C 19.898438 -31.390625 18.128906 -31.019531 16.828125 -30.28125 C 15.535156 -29.539062 14.609375 -28.253906 14.046875 -26.421875 C 13.484375 -24.585938 13.203125 -22.015625 13.203125 -18.703125 C 13.203125 -15.398438 13.484375 -12.832031 14.046875 -11 C 14.609375 -9.164062 15.535156 -7.890625 16.828125 -7.171875 C 18.128906 -6.460938 19.898438 -6.109375 22.140625 -6.109375 C 24.429688 -6.109375 26.238281 -6.460938 27.5625 -7.171875 C 28.882812 -7.890625 29.8125 -9.164062 30.34375 -11 C 30.882812 -12.832031 31.15625 -15.398438 31.15625 -18.703125 C 31.15625 -22.015625 30.882812 -24.585938 30.34375 -26.421875 C 29.8125 -28.253906 28.882812 -29.539062 27.5625 -30.28125 C 26.238281 -31.019531 24.429688 -31.390625 22.140625 -31.390625 Z M 22.140625 -31.390625 "/></g></g></g><g fill="#ff751f" fill-opacity="1"><g transform="translate(394.932879, 74.999638)"><g><path d="M 39.09375 -37.5 L 28.40625 -24.125 C 28 -23.519531 27.488281 -22.921875 26.875 -22.328125 C 26.269531 -21.742188 25.738281 -21.300781 25.28125 -21 L 25.28125 -20.84375 C 25.738281 -20.539062 26.269531 -20.046875 26.875 -19.359375 C 27.488281 -18.671875 28 -17.96875 28.40625 -17.25 L 40.3125 0 L 29.859375 0 L 16.1875 -21.234375 L 28.640625 -37.5 Z M 14.4375 -53.453125 L 14.515625 -30.625 C 14.515625 -28.9375 14.421875 -27.328125 14.234375 -25.796875 C 14.054688 -24.273438 13.816406 -22.726562 13.515625 -21.15625 C 13.765625 -19.675781 13.976562 -18.144531 14.15625 -16.5625 C 14.34375 -14.988281 14.4375 -13.515625 14.4375 -12.140625 L 14.4375 0 L 5.1875 0 L 5.1875 -53.453125 Z M 20.15625 -23.984375 L 20.15625 -18.015625 L 11.453125 -18.015625 L 11.453125 -23.984375 Z M 20.15625 -23.984375 "/></g></g></g><g fill="#ff751f" fill-opacity="1"><g transform="translate(434.71768, 74.999638)"><g><path d="M 22.140625 -38.40625 C 26.722656 -38.40625 30.375 -37.769531 33.09375 -36.5 C 35.820312 -35.226562 37.785156 -33.140625 38.984375 -30.234375 C 40.179688 -27.335938 40.78125 -23.492188 40.78125 -18.703125 C 40.78125 -13.921875 40.179688 -10.09375 38.984375 -7.21875 C 37.785156 -4.34375 35.820312 -2.253906 33.09375 -0.953125 C 30.375 0.347656 26.722656 1 22.140625 1 C 17.660156 1 14.054688 0.347656 11.328125 -0.953125 C 8.609375 -2.253906 6.640625 -4.34375 5.421875 -7.21875 C 4.203125 -10.09375 3.59375 -13.921875 3.59375 -18.703125 C 3.59375 -23.492188 4.203125 -27.335938 5.421875 -30.234375 C 6.640625 -33.140625 8.609375 -35.226562 11.328125 -36.5 C 14.054688 -37.769531 17.660156 -38.40625 22.140625 -38.40625 Z M 22.140625 -31.390625 C 19.898438 -31.390625 18.128906 -31.019531 16.828125 -30.28125 C 15.535156 -29.539062 14.609375 -28.253906 14.046875 -26.421875 C 13.484375 -24.585938 13.203125 -22.015625 13.203125 -18.703125 C 13.203125 -15.398438 13.484375 -12.832031 14.046875 -11 C 14.609375 -9.164062 15.535156 -7.890625 16.828125 -7.171875 C 18.128906 -6.460938 19.898438 -6.109375 22.140625 -6.109375 C 24.429688 -6.109375 26.238281 -6.460938 27.5625 -7.171875 C 28.882812 -7.890625 29.8125 -9.164062 30.34375 -11 C 30.882812 -12.832031 31.15625 -15.398438 31.15625 -18.703125 C 31.15625 -22.015625 30.882812 -24.585938 30.34375 -26.421875 C 29.8125 -28.253906 28.882812 -29.539062 27.5625 -30.28125 C 26.238281 -31.019531 24.429688 -31.390625 22.140625 -31.390625 Z M 22.140625 -31.390625 "/></g></g></g></g></g></svg>