<svg xmlns="http://www.w3.org/2000/svg" xmlns:xlink="http://www.w3.org/1999/xlink" width="400" zoomAndPan="magnify" viewBox="0 0 300 74.999997" height="100" preserveAspectRatio="xMidYMid meet" version="1.0"><defs><g/></defs><path fill="#ff751f" d="M 31.5 62.722656 C 25.957031 40.226562 49.511719 17.351562 67.386719 6.917969 C 48.3125 14.726562 3.890625 39.226562 31.5 62.722656 Z M 31.5 62.722656 " fill-opacity="1" fill-rule="evenodd"/><path fill="#ff751f" d="M 21.972656 41.378906 C 18.394531 33.445312 11.785156 27.082031 2.914062 21.871094 C 11.480469 25.484375 19.015625 29.777344 24.847656 35.214844 C 23.589844 37.222656 22.609375 39.277344 21.972656 41.378906 Z M 21.972656 41.378906 " fill-opacity="1" fill-rule="evenodd"/><path fill="#ff751f" d="M 30.496094 23.308594 C 30.546875 23.632812 30.566406 23.957031 30.554688 24.285156 C 30.542969 24.613281 30.5 24.933594 30.425781 25.253906 C 30.351562 25.574219 30.242188 25.882812 30.109375 26.179688 C 29.972656 26.476562 29.808594 26.761719 29.617188 27.027344 C 29.425781 27.292969 29.207031 27.535156 28.96875 27.761719 C 28.730469 27.984375 28.46875 28.183594 28.191406 28.355469 C 27.910156 28.527344 27.617188 28.667969 27.3125 28.785156 C 27.003906 28.898438 26.6875 28.984375 26.367188 29.035156 C 26.042969 29.085938 25.714844 29.109375 25.390625 29.097656 C 25.0625 29.085938 24.738281 29.042969 24.417969 28.964844 C 24.101562 28.890625 23.792969 28.785156 23.492188 28.648438 C 23.195312 28.511719 22.914062 28.347656 22.648438 28.15625 C 22.382812 27.964844 22.136719 27.75 21.914062 27.507812 C 21.691406 27.269531 21.492188 27.011719 21.320312 26.730469 C 21.148438 26.453125 21.003906 26.160156 20.890625 25.851562 C 20.773438 25.546875 20.691406 25.230469 20.636719 24.90625 C 20.585938 24.582031 20.566406 24.257812 20.578125 23.929688 C 20.589844 23.601562 20.632812 23.277344 20.707031 22.960938 C 20.78125 22.640625 20.886719 22.332031 21.023438 22.035156 C 21.160156 21.734375 21.324219 21.453125 21.515625 21.1875 C 21.707031 20.921875 21.925781 20.675781 22.164062 20.453125 C 22.402344 20.230469 22.664062 20.03125 22.941406 19.859375 C 23.222656 19.6875 23.515625 19.542969 23.820312 19.429688 C 24.128906 19.316406 24.445312 19.230469 24.765625 19.179688 C 25.089844 19.125 25.417969 19.105469 25.742188 19.117188 C 26.070312 19.128906 26.394531 19.171875 26.714844 19.25 C 27.03125 19.324219 27.339844 19.429688 27.640625 19.566406 C 27.9375 19.703125 28.21875 19.867188 28.484375 20.058594 C 28.75 20.25 28.996094 20.464844 29.21875 20.703125 C 29.441406 20.945312 29.640625 21.203125 29.8125 21.484375 C 29.984375 21.761719 30.128906 22.054688 30.242188 22.363281 C 30.359375 22.667969 30.441406 22.984375 30.496094 23.308594 Z M 30.496094 23.308594 " fill-opacity="1" fill-rule="nonzero"/><path fill="#004aad" d="M 53.597656 62.722656 C 56.59375 50.550781 51.074219 38.269531 42.546875 27.90625 C 43.855469 26.3125 45.238281 24.765625 46.671875 23.273438 C 60.855469 34.261719 70.109375 48.667969 53.597656 62.722656 Z M 38.425781 23.277344 C 39.765625 22.238281 41.140625 21.234375 42.546875 20.265625 C 33.917969 14.3125 24.300781 9.621094 17.707031 6.921875 C 24.429688 10.839844 31.953125 16.523438 38.425781 23.277344 Z M 38.425781 23.277344 " fill-opacity="1" fill-rule="evenodd"/><path fill="#004aad" d="M 63.128906 41.378906 C 66.703125 33.449219 73.316406 27.082031 82.1875 21.878906 C 73.621094 25.488281 66.082031 29.78125 60.253906 35.21875 C 61.507812 37.222656 62.492188 39.277344 63.128906 41.378906 Z M 63.128906 41.378906 " fill-opacity="1" fill-rule="evenodd"/><path fill="#004aad" d="M 60.683594 19.253906 C 61.003906 19.328125 61.3125 19.433594 61.609375 19.570312 C 61.910156 19.707031 62.191406 19.871094 62.457031 20.0625 C 62.722656 20.253906 62.96875 20.46875 63.191406 20.710938 C 63.414062 20.949219 63.613281 21.207031 63.785156 21.488281 C 63.957031 21.765625 64.101562 22.058594 64.214844 22.367188 C 64.328125 22.671875 64.414062 22.988281 64.464844 23.3125 C 64.519531 23.636719 64.539062 23.960938 64.527344 24.289062 C 64.515625 24.617188 64.472656 24.941406 64.394531 25.257812 C 64.320312 25.578125 64.214844 25.886719 64.078125 26.183594 C 63.941406 26.484375 63.777344 26.765625 63.585938 27.03125 C 63.394531 27.296875 63.179688 27.542969 62.941406 27.765625 C 62.699219 27.988281 62.441406 28.1875 62.160156 28.359375 C 61.882812 28.53125 61.589844 28.675781 61.28125 28.789062 C 60.976562 28.902344 60.660156 28.988281 60.335938 29.039062 C 60.011719 29.09375 59.6875 29.113281 59.359375 29.101562 C 59.03125 29.089844 58.710938 29.046875 58.390625 28.96875 C 58.070312 28.894531 57.761719 28.789062 57.464844 28.652344 C 57.164062 28.515625 56.882812 28.351562 56.617188 28.160156 C 56.351562 27.96875 56.105469 27.753906 55.882812 27.515625 C 55.660156 27.273438 55.460938 27.015625 55.289062 26.734375 C 55.117188 26.457031 54.972656 26.164062 54.859375 25.855469 C 54.746094 25.550781 54.660156 25.234375 54.609375 24.910156 C 54.558594 24.585938 54.535156 24.261719 54.546875 23.933594 C 54.558594 23.605469 54.601562 23.285156 54.679688 22.964844 C 54.753906 22.644531 54.859375 22.335938 54.996094 22.039062 C 55.132812 21.742188 55.296875 21.457031 55.488281 21.191406 C 55.679688 20.925781 55.894531 20.683594 56.136719 20.457031 C 56.375 20.234375 56.632812 20.039062 56.914062 19.863281 C 57.191406 19.691406 57.484375 19.550781 57.792969 19.433594 C 58.097656 19.320312 58.414062 19.238281 58.738281 19.183594 C 59.0625 19.132812 59.386719 19.109375 59.714844 19.121094 C 60.042969 19.132812 60.367188 19.175781 60.683594 19.253906 Z M 60.683594 19.253906 " fill-opacity="1" fill-rule="nonzero"/><path fill="#ff751f" d="M 43.414062 74.925781 C 67.390625 74.925781 86.828125 66.949219 86.828125 57.109375 C 86.828125 51.316406 80.089844 46.175781 69.65625 42.921875 C 78.226562 45.972656 83.652344 50.484375 83.652344 55.523438 C 83.652344 64.699219 65.636719 72.140625 43.414062 72.140625 C 21.1875 72.140625 3.171875 64.699219 3.171875 55.523438 C 3.171875 50.488281 8.597656 45.972656 17.167969 42.925781 C 6.738281 46.175781 0 51.316406 0 57.109375 C 0 66.949219 19.4375 74.925781 43.414062 74.925781 Z M 43.414062 74.925781 " fill-opacity="1" fill-rule="evenodd"/><path fill="#ff751f" d="M 48.519531 6.023438 C 48.582031 6.414062 48.605469 6.804688 48.589844 7.199219 C 48.578125 7.589844 48.523438 7.980469 48.433594 8.363281 C 48.34375 8.746094 48.21875 9.117188 48.054688 9.476562 C 47.890625 9.835938 47.691406 10.175781 47.460938 10.492188 C 47.230469 10.8125 46.972656 11.109375 46.683594 11.375 C 46.394531 11.644531 46.082031 11.882812 45.75 12.089844 C 45.414062 12.296875 45.0625 12.46875 44.691406 12.605469 C 44.324219 12.746094 43.945312 12.84375 43.554688 12.910156 C 43.164062 12.972656 42.773438 12.996094 42.378906 12.980469 C 41.988281 12.96875 41.597656 12.914062 41.214844 12.824219 C 40.832031 12.734375 40.460938 12.609375 40.101562 12.445312 C 39.742188 12.28125 39.40625 12.082031 39.085938 11.851562 C 38.765625 11.621094 38.472656 11.363281 38.203125 11.074219 C 37.933594 10.785156 37.695312 10.472656 37.488281 10.140625 C 37.28125 9.804688 37.109375 9.453125 36.972656 9.082031 C 36.832031 8.714844 36.734375 8.335938 36.671875 7.945312 C 36.605469 7.554688 36.582031 7.164062 36.597656 6.769531 C 36.609375 6.378906 36.664062 5.988281 36.753906 5.605469 C 36.84375 5.222656 36.972656 4.851562 37.132812 4.492188 C 37.296875 4.132812 37.496094 3.792969 37.726562 3.476562 C 37.957031 3.15625 38.214844 2.863281 38.503906 2.59375 C 38.792969 2.324219 39.105469 2.085938 39.4375 1.878906 C 39.773438 1.671875 40.125 1.5 40.496094 1.363281 C 40.863281 1.222656 41.246094 1.125 41.632812 1.0625 C 42.023438 0.996094 42.414062 0.972656 42.808594 0.988281 C 43.199219 1 43.589844 1.054688 43.972656 1.144531 C 44.355469 1.234375 44.726562 1.363281 45.085938 1.523438 C 45.445312 1.6875 45.785156 1.886719 46.101562 2.117188 C 46.421875 2.347656 46.71875 2.605469 46.984375 2.894531 C 47.253906 3.183594 47.492188 3.496094 47.699219 3.828125 C 47.90625 4.164062 48.078125 4.515625 48.214844 4.886719 C 48.355469 5.253906 48.453125 5.632812 48.519531 6.023438 Z M 48.519531 6.023438 " fill-opacity="1" fill-rule="nonzero"/><g fill="#000000" fill-opacity="1"><g transform="translate(76.926196, 46.499995)"><g><path d="M 18.703125 0 L 18.6875 -10.90625 L 13.328125 -1.921875 L 11.4375 -1.921875 L 6.109375 -10.671875 L 6.109375 0 L 2.15625 0 L 2.15625 -18.1875 L 5.640625 -18.1875 L 12.453125 -6.890625 L 19.15625 -18.1875 L 22.609375 -18.1875 L 22.65625 0 Z M 18.703125 0 "/></g></g></g><g fill="#000000" fill-opacity="1"><g transform="translate(101.737488, 46.499995)"><g><path d="M 7.515625 -14.1875 C 9.671875 -14.1875 11.328125 -13.671875 12.484375 -12.640625 C 13.648438 -11.609375 14.234375 -10.054688 14.234375 -7.984375 L 14.234375 0 L 10.453125 0 L 10.453125 -1.734375 C 9.679688 -0.441406 8.257812 0.203125 6.1875 0.203125 C 5.113281 0.203125 4.179688 0.0195312 3.390625 -0.34375 C 2.597656 -0.707031 1.992188 -1.207031 1.578125 -1.84375 C 1.171875 -2.488281 0.96875 -3.21875 0.96875 -4.03125 C 0.96875 -5.320312 1.453125 -6.34375 2.421875 -7.09375 C 3.398438 -7.84375 4.914062 -8.21875 6.96875 -8.21875 L 10.1875 -8.21875 C 10.1875 -9.09375 9.914062 -9.769531 9.375 -10.25 C 8.84375 -10.726562 8.039062 -10.96875 6.96875 -10.96875 C 6.21875 -10.96875 5.484375 -10.847656 4.765625 -10.609375 C 4.046875 -10.378906 3.4375 -10.066406 2.9375 -9.671875 L 1.484375 -12.5 C 2.242188 -13.03125 3.15625 -13.441406 4.21875 -13.734375 C 5.289062 -14.035156 6.390625 -14.1875 7.515625 -14.1875 Z M 7.203125 -2.515625 C 7.890625 -2.515625 8.5 -2.675781 9.03125 -3 C 9.570312 -3.320312 9.957031 -3.796875 10.1875 -4.421875 L 10.1875 -5.84375 L 7.40625 -5.84375 C 5.738281 -5.84375 4.90625 -5.296875 4.90625 -4.203125 C 4.90625 -3.691406 5.109375 -3.28125 5.515625 -2.96875 C 5.921875 -2.664062 6.484375 -2.515625 7.203125 -2.515625 Z M 7.203125 -2.515625 "/></g></g></g><g fill="#000000" fill-opacity="1"><g transform="translate(117.767398, 46.499995)"><g><path d="M 6.578125 0.203125 C 5.410156 0.203125 4.269531 0.0625 3.15625 -0.21875 C 2.050781 -0.507812 1.171875 -0.867188 0.515625 -1.296875 L 1.875 -4.203125 C 2.5 -3.804688 3.25 -3.484375 4.125 -3.234375 C 5.007812 -2.984375 5.878906 -2.859375 6.734375 -2.859375 C 8.441406 -2.859375 9.296875 -3.28125 9.296875 -4.125 C 9.296875 -4.53125 9.0625 -4.816406 8.59375 -4.984375 C 8.132812 -5.160156 7.414062 -5.3125 6.4375 -5.4375 C 5.300781 -5.601562 4.359375 -5.796875 3.609375 -6.015625 C 2.867188 -6.242188 2.222656 -6.644531 1.671875 -7.21875 C 1.128906 -7.789062 0.859375 -8.609375 0.859375 -9.671875 C 0.859375 -10.546875 1.113281 -11.328125 1.625 -12.015625 C 2.132812 -12.703125 2.878906 -13.234375 3.859375 -13.609375 C 4.835938 -13.992188 5.992188 -14.1875 7.328125 -14.1875 C 8.316406 -14.1875 9.300781 -14.078125 10.28125 -13.859375 C 11.257812 -13.640625 12.066406 -13.34375 12.703125 -12.96875 L 11.359375 -10.078125 C 10.128906 -10.773438 8.785156 -11.125 7.328125 -11.125 C 6.460938 -11.125 5.8125 -11 5.375 -10.75 C 4.945312 -10.507812 4.734375 -10.203125 4.734375 -9.828125 C 4.734375 -9.390625 4.960938 -9.082031 5.421875 -8.90625 C 5.890625 -8.738281 6.640625 -8.578125 7.671875 -8.421875 C 8.804688 -8.234375 9.738281 -8.03125 10.46875 -7.8125 C 11.195312 -7.59375 11.828125 -7.195312 12.359375 -6.625 C 12.898438 -6.050781 13.171875 -5.253906 13.171875 -4.234375 C 13.171875 -3.367188 12.910156 -2.597656 12.390625 -1.921875 C 11.867188 -1.242188 11.109375 -0.71875 10.109375 -0.34375 C 9.117188 0.0195312 7.941406 0.203125 6.578125 0.203125 Z M 6.578125 0.203125 "/></g></g></g><g fill="#000000" fill-opacity="1"><g transform="translate(131.562998, 46.499995)"><g><path d="M 8.515625 0.203125 C 7.046875 0.203125 5.726562 -0.101562 4.5625 -0.71875 C 3.394531 -1.332031 2.476562 -2.179688 1.8125 -3.265625 C 1.15625 -4.359375 0.828125 -5.597656 0.828125 -6.984375 C 0.828125 -8.367188 1.15625 -9.609375 1.8125 -10.703125 C 2.476562 -11.796875 3.394531 -12.648438 4.5625 -13.265625 C 5.726562 -13.878906 7.046875 -14.1875 8.515625 -14.1875 C 9.992188 -14.1875 11.3125 -13.878906 12.46875 -13.265625 C 13.632812 -12.648438 14.546875 -11.796875 15.203125 -10.703125 C 15.859375 -9.609375 16.1875 -8.367188 16.1875 -6.984375 C 16.1875 -5.597656 15.859375 -4.359375 15.203125 -3.265625 C 14.546875 -2.179688 13.632812 -1.332031 12.46875 -0.71875 C 11.3125 -0.101562 9.992188 0.203125 8.515625 0.203125 Z M 8.515625 -3.125 C 9.554688 -3.125 10.410156 -3.472656 11.078125 -4.171875 C 11.742188 -4.867188 12.078125 -5.804688 12.078125 -6.984375 C 12.078125 -8.160156 11.742188 -9.097656 11.078125 -9.796875 C 10.410156 -10.503906 9.554688 -10.859375 8.515625 -10.859375 C 7.484375 -10.859375 6.628906 -10.503906 5.953125 -9.796875 C 5.273438 -9.097656 4.9375 -8.160156 4.9375 -6.984375 C 4.9375 -5.804688 5.273438 -4.867188 5.953125 -4.171875 C 6.628906 -3.472656 7.484375 -3.125 8.515625 -3.125 Z M 8.515625 -3.125 "/></g></g></g><g fill="#000000" fill-opacity="1"><g transform="translate(148.580167, 46.499995)"><g><path d="M 19.78125 -14.1875 C 21.53125 -14.1875 22.914062 -13.671875 23.9375 -12.640625 C 24.96875 -11.609375 25.484375 -10.0625 25.484375 -8 L 25.484375 0 L 21.4375 0 L 21.4375 -7.375 C 21.4375 -8.488281 21.207031 -9.316406 20.75 -9.859375 C 20.289062 -10.398438 19.632812 -10.671875 18.78125 -10.671875 C 17.832031 -10.671875 17.078125 -10.363281 16.515625 -9.75 C 15.960938 -9.132812 15.6875 -8.222656 15.6875 -7.015625 L 15.6875 0 L 11.640625 0 L 11.640625 -7.375 C 11.640625 -9.570312 10.753906 -10.671875 8.984375 -10.671875 C 8.054688 -10.671875 7.3125 -10.363281 6.75 -9.75 C 6.195312 -9.132812 5.921875 -8.222656 5.921875 -7.015625 L 5.921875 0 L 1.875 0 L 1.875 -13.984375 L 5.75 -13.984375 L 5.75 -12.375 C 6.257812 -12.957031 6.890625 -13.40625 7.640625 -13.71875 C 8.398438 -14.03125 9.234375 -14.1875 10.140625 -14.1875 C 11.117188 -14.1875 12.003906 -13.988281 12.796875 -13.59375 C 13.597656 -13.207031 14.242188 -12.644531 14.734375 -11.90625 C 15.304688 -12.625 16.03125 -13.179688 16.90625 -13.578125 C 17.78125 -13.984375 18.738281 -14.1875 19.78125 -14.1875 Z M 19.78125 -14.1875 "/></g></g></g><g fill="#000000" fill-opacity="1"><g transform="translate(175.989542, 46.499995)"><g><path d="M 8.515625 0.203125 C 7.046875 0.203125 5.726562 -0.101562 4.5625 -0.71875 C 3.394531 -1.332031 2.476562 -2.179688 1.8125 -3.265625 C 1.15625 -4.359375 0.828125 -5.597656 0.828125 -6.984375 C 0.828125 -8.367188 1.15625 -9.609375 1.8125 -10.703125 C 2.476562 -11.796875 3.394531 -12.648438 4.5625 -13.265625 C 5.726562 -13.878906 7.046875 -14.1875 8.515625 -14.1875 C 9.992188 -14.1875 11.3125 -13.878906 12.46875 -13.265625 C 13.632812 -12.648438 14.546875 -11.796875 15.203125 -10.703125 C 15.859375 -9.609375 16.1875 -8.367188 16.1875 -6.984375 C 16.1875 -5.597656 15.859375 -4.359375 15.203125 -3.265625 C 14.546875 -2.179688 13.632812 -1.332031 12.46875 -0.71875 C 11.3125 -0.101562 9.992188 0.203125 8.515625 0.203125 Z M 8.515625 -3.125 C 9.554688 -3.125 10.410156 -3.472656 11.078125 -4.171875 C 11.742188 -4.867188 12.078125 -5.804688 12.078125 -6.984375 C 12.078125 -8.160156 11.742188 -9.097656 11.078125 -9.796875 C 10.410156 -10.503906 9.554688 -10.859375 8.515625 -10.859375 C 7.484375 -10.859375 6.628906 -10.503906 5.953125 -9.796875 C 5.273438 -9.097656 4.9375 -8.160156 4.9375 -6.984375 C 4.9375 -5.804688 5.273438 -4.867188 5.953125 -4.171875 C 6.628906 -3.472656 7.484375 -3.125 8.515625 -3.125 Z M 8.515625 -3.125 "/></g></g></g><g fill="#ea580c" fill-opacity="1"><g transform="translate(193.012128, 46.499995)"><g><path d="M 8.140625 0.3125 C 6.691406 0.3125 5.296875 0.117188 3.953125 -0.265625 C 2.617188 -0.660156 1.546875 -1.171875 0.734375 -1.796875 L 2.15625 -4.96875 C 2.9375 -4.394531 3.863281 -3.929688 4.9375 -3.578125 C 6.007812 -3.234375 7.082031 -3.0625 8.15625 -3.0625 C 9.351562 -3.0625 10.238281 -3.238281 10.8125 -3.59375 C 11.382812 -3.945312 11.671875 -4.421875 11.671875 -5.015625 C 11.671875 -5.453125 11.5 -5.8125 11.15625 -6.09375 C 10.820312 -6.375 10.390625 -6.601562 9.859375 -6.78125 C 9.328125 -6.957031 8.613281 -7.148438 7.71875 -7.359375 C 6.332031 -7.679688 5.195312 -8.003906 4.3125 -8.328125 C 3.425781 -8.660156 2.664062 -9.191406 2.03125 -9.921875 C 1.40625 -10.648438 1.09375 -11.625 1.09375 -12.84375 C 1.09375 -13.894531 1.378906 -14.847656 1.953125 -15.703125 C 2.523438 -16.566406 3.382812 -17.25 4.53125 -17.75 C 5.6875 -18.25 7.09375 -18.5 8.75 -18.5 C 9.914062 -18.5 11.050781 -18.359375 12.15625 -18.078125 C 13.269531 -17.804688 14.242188 -17.410156 15.078125 -16.890625 L 13.765625 -13.6875 C 12.085938 -14.644531 10.410156 -15.125 8.734375 -15.125 C 7.554688 -15.125 6.6875 -14.929688 6.125 -14.546875 C 5.5625 -14.171875 5.28125 -13.671875 5.28125 -13.046875 C 5.28125 -12.421875 5.601562 -11.957031 6.25 -11.65625 C 6.894531 -11.351562 7.882812 -11.050781 9.21875 -10.75 C 10.601562 -10.425781 11.738281 -10.097656 12.625 -9.765625 C 13.507812 -9.441406 14.265625 -8.921875 14.890625 -8.203125 C 15.523438 -7.492188 15.84375 -6.535156 15.84375 -5.328125 C 15.84375 -4.285156 15.550781 -3.332031 14.96875 -2.46875 C 14.394531 -1.613281 13.523438 -0.9375 12.359375 -0.4375 C 11.203125 0.0625 9.796875 0.3125 8.140625 0.3125 Z M 8.140625 0.3125 "/></g></g></g><g fill="#ea580c" fill-opacity="1"><g transform="translate(209.587634, 46.499995)"><g><path d="M 8.515625 0.203125 C 7.046875 0.203125 5.726562 -0.101562 4.5625 -0.71875 C 3.394531 -1.332031 2.476562 -2.179688 1.8125 -3.265625 C 1.15625 -4.359375 0.828125 -5.597656 0.828125 -6.984375 C 0.828125 -8.367188 1.15625 -9.609375 1.8125 -10.703125 C 2.476562 -11.796875 3.394531 -12.648438 4.5625 -13.265625 C 5.726562 -13.878906 7.046875 -14.1875 8.515625 -14.1875 C 9.992188 -14.1875 11.3125 -13.878906 12.46875 -13.265625 C 13.632812 -12.648438 14.546875 -11.796875 15.203125 -10.703125 C 15.859375 -9.609375 16.1875 -8.367188 16.1875 -6.984375 C 16.1875 -5.597656 15.859375 -4.359375 15.203125 -3.265625 C 14.546875 -2.179688 13.632812 -1.332031 12.46875 -0.71875 C 11.3125 -0.101562 9.992188 0.203125 8.515625 0.203125 Z M 8.515625 -3.125 C 9.554688 -3.125 10.410156 -3.472656 11.078125 -4.171875 C 11.742188 -4.867188 12.078125 -5.804688 12.078125 -6.984375 C 12.078125 -8.160156 11.742188 -9.097656 11.078125 -9.796875 C 10.410156 -10.503906 9.554688 -10.859375 8.515625 -10.859375 C 7.484375 -10.859375 6.628906 -10.503906 5.953125 -9.796875 C 5.273438 -9.097656 4.9375 -8.160156 4.9375 -6.984375 C 4.9375 -5.804688 5.273438 -4.867188 5.953125 -4.171875 C 6.628906 -3.472656 7.484375 -3.125 8.515625 -3.125 Z M 8.515625 -3.125 "/></g></g></g><g fill="#ea580c" fill-opacity="1"><g transform="translate(226.604803, 46.499995)"><g><path d="M 7.875 -5.484375 L 5.921875 -3.5625 L 5.921875 0 L 1.875 0 L 1.875 -19.28125 L 5.921875 -19.28125 L 5.921875 -8.359375 L 11.84375 -13.984375 L 16.6875 -13.984375 L 10.859375 -8.0625 L 17.203125 0 L 12.296875 0 Z M 7.875 -5.484375 "/></g></g></g><g fill="#ea580c" fill-opacity="1"><g transform="translate(243.154159, 46.499995)"><g><path d="M 8.515625 0.203125 C 7.046875 0.203125 5.726562 -0.101562 4.5625 -0.71875 C 3.394531 -1.332031 2.476562 -2.179688 1.8125 -3.265625 C 1.15625 -4.359375 0.828125 -5.597656 0.828125 -6.984375 C 0.828125 -8.367188 1.15625 -9.609375 1.8125 -10.703125 C 2.476562 -11.796875 3.394531 -12.648438 4.5625 -13.265625 C 5.726562 -13.878906 7.046875 -14.1875 8.515625 -14.1875 C 9.992188 -14.1875 11.3125 -13.878906 12.46875 -13.265625 C 13.632812 -12.648438 14.546875 -11.796875 15.203125 -10.703125 C 15.859375 -9.609375 16.1875 -8.367188 16.1875 -6.984375 C 16.1875 -5.597656 15.859375 -4.359375 15.203125 -3.265625 C 14.546875 -2.179688 13.632812 -1.332031 12.46875 -0.71875 C 11.3125 -0.101562 9.992188 0.203125 8.515625 0.203125 Z M 8.515625 -3.125 C 9.554688 -3.125 10.410156 -3.472656 11.078125 -4.171875 C 11.742188 -4.867188 12.078125 -5.804688 12.078125 -6.984375 C 12.078125 -8.160156 11.742188 -9.097656 11.078125 -9.796875 C 10.410156 -10.503906 9.554688 -10.859375 8.515625 -10.859375 C 7.484375 -10.859375 6.628906 -10.503906 5.953125 -9.796875 C 5.273438 -9.097656 4.9375 -8.160156 4.9375 -6.984375 C 4.9375 -5.804688 5.273438 -4.867188 5.953125 -4.171875 C 6.628906 -3.472656 7.484375 -3.125 8.515625 -3.125 Z M 8.515625 -3.125 "/></g></g></g></svg>