<svg xmlns="http://www.w3.org/2000/svg" xmlns:xlink="http://www.w3.org/1999/xlink" width="500" zoomAndPan="magnify" viewBox="0 0 375 374.999991" height="500" preserveAspectRatio="xMidYMid meet" version="1.0"><defs><clipPath id="9166817d88"><path d="M 10.632812 206 L 364.632812 206 L 364.632812 337.253906 L 10.632812 337.253906 Z M 10.632812 206 " clip-rule="nonzero"/></clipPath></defs><path fill="#ff751f" d="M 138.953125 287.492188 C 116.367188 195.851562 212.328125 102.675781 285.128906 60.175781 C 207.433594 91.976562 26.476562 191.78125 138.953125 287.492188 Z M 138.953125 287.492188 " fill-opacity="1" fill-rule="evenodd"/><path fill="#ff751f" d="M 100.140625 200.554688 C 85.566406 168.234375 58.640625 142.3125 22.5 121.089844 C 57.394531 135.800781 88.101562 153.296875 111.855469 175.4375 C 106.726562 183.617188 102.734375 191.992188 100.140625 200.554688 Z M 100.140625 200.554688 " fill-opacity="1" fill-rule="evenodd"/><path fill="#ff751f" d="M 134.851562 126.9375 C 134.960938 127.59375 135.035156 128.257812 135.074219 128.921875 C 135.117188 129.585938 135.125 130.25 135.101562 130.917969 C 135.078125 131.582031 135.023438 132.246094 134.933594 132.90625 C 134.84375 133.566406 134.722656 134.21875 134.570312 134.867188 C 134.417969 135.515625 134.234375 136.15625 134.019531 136.785156 C 133.800781 137.414062 133.554688 138.035156 133.277344 138.640625 C 133.003906 139.246094 132.695312 139.835938 132.363281 140.414062 C 132.027344 140.988281 131.664062 141.546875 131.277344 142.085938 C 130.886719 142.625 130.472656 143.148438 130.03125 143.644531 C 129.589844 144.144531 129.125 144.621094 128.640625 145.078125 C 128.152344 145.53125 127.644531 145.960938 127.113281 146.363281 C 126.582031 146.765625 126.035156 147.144531 125.46875 147.496094 C 124.902344 147.84375 124.320312 148.164062 123.722656 148.457031 C 123.125 148.75 122.511719 149.015625 121.886719 149.246094 C 121.265625 149.480469 120.628906 149.683594 119.988281 149.851562 C 119.34375 150.023438 118.691406 150.160156 118.035156 150.269531 C 117.378906 150.375 116.714844 150.449219 116.050781 150.492188 C 115.386719 150.53125 114.722656 150.542969 114.054688 150.519531 C 113.390625 150.496094 112.726562 150.4375 112.066406 150.347656 C 111.40625 150.261719 110.753906 150.140625 110.105469 149.988281 C 109.457031 149.832031 108.816406 149.648438 108.1875 149.433594 C 107.558594 149.21875 106.9375 148.972656 106.332031 148.695312 C 105.726562 148.417969 105.136719 148.113281 104.5625 147.777344 C 103.984375 147.441406 103.425781 147.082031 102.886719 146.691406 C 102.347656 146.300781 101.828125 145.886719 101.328125 145.445312 C 100.828125 145.003906 100.351562 144.542969 99.898438 144.054688 C 99.441406 143.566406 99.015625 143.058594 98.609375 142.527344 C 98.207031 142 97.828125 141.449219 97.480469 140.882812 C 97.128906 140.316406 96.808594 139.734375 96.515625 139.136719 C 96.222656 138.539062 95.957031 137.929688 95.726562 137.304688 C 95.492188 136.679688 95.289062 136.046875 95.121094 135.402344 C 94.949219 134.757812 94.8125 134.109375 94.703125 133.449219 C 94.597656 132.792969 94.523438 132.132812 94.480469 131.46875 C 94.441406 130.800781 94.429688 130.136719 94.453125 129.472656 C 94.480469 128.804688 94.535156 128.144531 94.625 127.484375 C 94.710938 126.824219 94.832031 126.167969 94.988281 125.519531 C 95.140625 124.871094 95.324219 124.234375 95.539062 123.601562 C 95.757812 122.972656 96.003906 122.355469 96.277344 121.75 C 96.554688 121.144531 96.859375 120.550781 97.195312 119.976562 C 97.53125 119.398438 97.890625 118.84375 98.28125 118.300781 C 98.671875 117.761719 99.085938 117.242188 99.527344 116.742188 C 99.96875 116.242188 100.429688 115.765625 100.917969 115.3125 C 101.40625 114.859375 101.914062 114.429688 102.445312 114.023438 C 102.972656 113.621094 103.523438 113.242188 104.089844 112.894531 C 104.65625 112.542969 105.238281 112.222656 105.835938 111.929688 C 106.433594 111.636719 107.046875 111.375 107.667969 111.140625 C 108.292969 110.90625 108.925781 110.707031 109.570312 110.535156 C 110.214844 110.363281 110.867188 110.226562 111.523438 110.121094 C 112.179688 110.011719 112.839844 109.9375 113.507812 109.898438 C 114.171875 109.855469 114.835938 109.847656 115.5 109.871094 C 116.167969 109.894531 116.832031 109.949219 117.492188 110.039062 C 118.152344 110.128906 118.804688 110.25 119.453125 110.402344 C 120.101562 110.554688 120.738281 110.738281 121.371094 110.957031 C 122 111.171875 122.617188 111.417969 123.222656 111.695312 C 123.832031 111.96875 124.421875 112.277344 124.996094 112.609375 C 125.574219 112.945312 126.132812 113.308594 126.671875 113.695312 C 127.210938 114.085938 127.730469 114.5 128.230469 114.941406 C 128.730469 115.382812 129.207031 115.847656 129.660156 116.335938 C 130.113281 116.820312 130.542969 117.332031 130.949219 117.859375 C 131.351562 118.390625 131.730469 118.9375 132.078125 119.503906 C 132.429688 120.070312 132.75 120.652344 133.042969 121.25 C 133.335938 121.847656 133.597656 122.460938 133.832031 123.085938 C 134.066406 123.707031 134.265625 124.34375 134.4375 124.984375 C 134.609375 125.628906 134.746094 126.28125 134.851562 126.9375 Z M 134.851562 126.9375 " fill-opacity="1" fill-rule="nonzero"/><path fill="#004aad" d="M 228.960938 287.492188 C 241.171875 237.90625 218.683594 187.882812 183.945312 145.671875 C 189.285156 139.179688 194.910156 132.882812 200.75 126.792969 C 258.53125 171.558594 296.230469 230.246094 228.960938 287.492188 Z M 167.160156 126.8125 C 172.617188 122.589844 178.222656 118.5 183.945312 114.542969 C 148.804688 90.289062 109.628906 71.179688 82.761719 60.195312 C 110.144531 76.15625 140.796875 99.296875 167.160156 126.8125 Z M 167.160156 126.8125 " fill-opacity="1" fill-rule="evenodd"/><path fill="#004aad" d="M 267.789062 200.554688 C 282.34375 168.253906 309.289062 142.3125 345.429688 121.109375 C 310.535156 135.820312 279.828125 153.316406 256.074219 175.457031 C 261.183594 183.617188 265.195312 191.992188 267.789062 200.554688 Z M 267.789062 200.554688 " fill-opacity="1" fill-rule="evenodd"/><path fill="#004aad" d="M 257.835938 110.421875 C 258.484375 110.574219 259.121094 110.757812 259.753906 110.972656 C 260.382812 111.191406 261 111.4375 261.605469 111.714844 C 262.210938 111.988281 262.804688 112.296875 263.378906 112.628906 C 263.953125 112.964844 264.511719 113.328125 265.054688 113.714844 C 265.59375 114.105469 266.113281 114.519531 266.613281 114.960938 C 267.113281 115.402344 267.589844 115.867188 268.042969 116.351562 C 268.496094 116.839844 268.925781 117.347656 269.332031 117.878906 C 269.734375 118.410156 270.109375 118.957031 270.460938 119.523438 C 270.8125 120.089844 271.132812 120.671875 271.425781 121.269531 C 271.71875 121.867188 271.980469 122.480469 272.214844 123.101562 C 272.449219 123.726562 272.648438 124.363281 272.820312 125.003906 C 272.992188 125.648438 273.128906 126.300781 273.234375 126.957031 C 273.34375 127.613281 273.417969 128.277344 273.457031 128.941406 C 273.5 129.605469 273.507812 130.269531 273.484375 130.9375 C 273.460938 131.601562 273.40625 132.265625 273.316406 132.925781 C 273.226562 133.585938 273.105469 134.238281 272.953125 134.886719 C 272.800781 135.535156 272.617188 136.175781 272.398438 136.804688 C 272.183594 137.433594 271.9375 138.050781 271.660156 138.660156 C 271.386719 139.265625 271.078125 139.855469 270.746094 140.429688 C 270.410156 141.007812 270.046875 141.566406 269.660156 142.105469 C 269.269531 142.644531 268.855469 143.164062 268.414062 143.664062 C 267.972656 144.164062 267.507812 144.640625 267.019531 145.09375 C 266.535156 145.550781 266.027344 145.976562 265.496094 146.382812 C 264.964844 146.785156 264.417969 147.164062 263.851562 147.511719 C 263.285156 147.863281 262.703125 148.183594 262.105469 148.476562 C 261.507812 148.769531 260.894531 149.035156 260.269531 149.265625 C 259.648438 149.5 259.011719 149.703125 258.371094 149.871094 C 257.726562 150.042969 257.074219 150.179688 256.417969 150.289062 C 255.761719 150.394531 255.097656 150.46875 254.433594 150.511719 C 253.769531 150.550781 253.105469 150.5625 252.4375 150.539062 C 251.773438 150.511719 251.109375 150.457031 250.449219 150.367188 C 249.789062 150.28125 249.136719 150.160156 248.488281 150.003906 C 247.839844 149.851562 247.199219 149.667969 246.570312 149.453125 C 245.941406 149.238281 245.320312 148.992188 244.714844 148.714844 C 244.109375 148.4375 243.519531 148.132812 242.945312 147.796875 C 242.367188 147.460938 241.808594 147.101562 241.269531 146.710938 C 240.730469 146.320312 240.210938 145.90625 239.710938 145.464844 C 239.210938 145.023438 238.734375 144.5625 238.28125 144.074219 C 237.824219 143.585938 237.394531 143.078125 236.992188 142.546875 C 236.589844 142.019531 236.210938 141.46875 235.859375 140.902344 C 235.511719 140.335938 235.191406 139.753906 234.898438 139.15625 C 234.605469 138.558594 234.339844 137.949219 234.109375 137.324219 C 233.875 136.699219 233.671875 136.066406 233.503906 135.421875 C 233.332031 134.777344 233.195312 134.128906 233.085938 133.46875 C 232.980469 132.8125 232.90625 132.152344 232.863281 131.488281 C 232.824219 130.820312 232.8125 130.15625 232.835938 129.492188 C 232.859375 128.824219 232.917969 128.164062 233.007812 127.503906 C 233.09375 126.84375 233.214844 126.1875 233.367188 125.539062 C 233.523438 124.890625 233.707031 124.253906 233.921875 123.621094 C 234.136719 122.992188 234.382812 122.375 234.660156 121.769531 C 234.9375 121.164062 235.242188 120.570312 235.578125 119.996094 C 235.914062 119.417969 236.273438 118.863281 236.664062 118.320312 C 237.054688 117.78125 237.46875 117.261719 237.910156 116.761719 C 238.351562 116.261719 238.8125 115.785156 239.300781 115.332031 C 239.789062 114.878906 240.296875 114.449219 240.828125 114.042969 C 241.355469 113.640625 241.902344 113.261719 242.472656 112.914062 C 243.039062 112.5625 243.621094 112.242188 244.21875 111.949219 C 244.816406 111.65625 245.425781 111.394531 246.050781 111.160156 C 246.675781 110.925781 247.308594 110.726562 247.953125 110.554688 C 248.597656 110.382812 249.246094 110.246094 249.90625 110.140625 C 250.5625 110.03125 251.222656 109.957031 251.886719 109.917969 C 252.554688 109.875 253.21875 109.867188 253.882812 109.890625 C 254.550781 109.914062 255.210938 109.96875 255.871094 110.058594 C 256.53125 110.148438 257.1875 110.269531 257.835938 110.421875 Z M 257.835938 110.421875 " fill-opacity="1" fill-rule="nonzero"/><g clip-path="url(#9166817d88)"><path fill="#ff751f" d="M 187.480469 337.207031 C 285.148438 337.207031 364.324219 304.714844 364.324219 264.636719 C 364.324219 241.035156 336.882812 220.085938 294.386719 206.835938 C 329.296875 219.261719 351.402344 237.636719 351.402344 258.167969 C 351.402344 295.554688 278.003906 325.859375 187.480469 325.859375 C 96.933594 325.859375 23.558594 295.554688 23.558594 258.167969 C 23.558594 237.65625 45.660156 219.261719 80.574219 206.855469 C 38.074219 220.085938 10.632812 241.035156 10.632812 264.636719 C 10.632812 304.714844 89.808594 337.207031 187.480469 337.207031 Z M 187.480469 337.207031 " fill-opacity="1" fill-rule="evenodd"/></g><path fill="#ff751f" d="M 208.273438 56.53125 C 208.402344 57.320312 208.492188 58.117188 208.539062 58.914062 C 208.589844 59.714844 208.601562 60.511719 208.574219 61.3125 C 208.542969 62.113281 208.476562 62.910156 208.371094 63.703125 C 208.261719 64.496094 208.117188 65.285156 207.933594 66.0625 C 207.75 66.84375 207.527344 67.609375 207.269531 68.367188 C 207.007812 69.125 206.714844 69.867188 206.378906 70.597656 C 206.046875 71.324219 205.679688 72.035156 205.277344 72.726562 C 204.875 73.421875 204.441406 74.089844 203.972656 74.742188 C 203.503906 75.390625 203.003906 76.015625 202.476562 76.613281 C 201.945312 77.214844 201.390625 77.789062 200.804688 78.335938 C 200.21875 78.878906 199.605469 79.394531 198.96875 79.882812 C 198.332031 80.367188 197.671875 80.820312 196.992188 81.242188 C 196.3125 81.660156 195.613281 82.046875 194.890625 82.402344 C 194.171875 82.753906 193.4375 83.070312 192.6875 83.347656 C 191.9375 83.628906 191.175781 83.871094 190.402344 84.074219 C 189.628906 84.28125 188.847656 84.449219 188.054688 84.574219 C 187.265625 84.703125 186.472656 84.792969 185.671875 84.84375 C 184.871094 84.894531 184.074219 84.902344 183.273438 84.875 C 182.472656 84.847656 181.675781 84.78125 180.882812 84.671875 C 180.089844 84.566406 179.304688 84.421875 178.523438 84.238281 C 177.746094 84.050781 176.976562 83.832031 176.21875 83.570312 C 175.460938 83.3125 174.71875 83.015625 173.988281 82.683594 C 173.261719 82.351562 172.550781 81.984375 171.859375 81.582031 C 171.167969 81.179688 170.496094 80.742188 169.847656 80.277344 C 169.195312 79.808594 168.570312 79.308594 167.972656 78.777344 C 167.371094 78.25 166.796875 77.691406 166.253906 77.105469 C 165.707031 76.519531 165.191406 75.910156 164.707031 75.273438 C 164.21875 74.636719 163.765625 73.976562 163.347656 73.296875 C 162.925781 72.613281 162.539062 71.914062 162.1875 71.195312 C 161.835938 70.476562 161.519531 69.742188 161.238281 68.992188 C 160.957031 68.242188 160.714844 67.480469 160.511719 66.707031 C 160.304688 65.929688 160.140625 65.148438 160.011719 64.359375 C 159.882812 63.570312 159.792969 62.773438 159.742188 61.976562 C 159.695312 61.175781 159.683594 60.375 159.710938 59.574219 C 159.738281 58.777344 159.808594 57.980469 159.914062 57.183594 C 160.019531 56.390625 160.167969 55.605469 160.351562 54.828125 C 160.535156 54.046875 160.757812 53.277344 161.015625 52.519531 C 161.273438 51.765625 161.570312 51.019531 161.902344 50.292969 C 162.234375 49.5625 162.601562 48.855469 163.003906 48.160156 C 163.40625 47.46875 163.84375 46.796875 164.3125 46.148438 C 164.78125 45.5 165.277344 44.875 165.808594 44.273438 C 166.335938 43.675781 166.894531 43.101562 167.480469 42.554688 C 168.066406 42.007812 168.679688 41.492188 169.316406 41.007812 C 169.953125 40.523438 170.609375 40.070312 171.292969 39.648438 C 171.972656 39.226562 172.671875 38.839844 173.390625 38.488281 C 174.109375 38.136719 174.84375 37.820312 175.59375 37.542969 C 176.347656 37.261719 177.109375 37.019531 177.882812 36.8125 C 178.65625 36.609375 179.4375 36.441406 180.226562 36.3125 C 181.019531 36.1875 181.8125 36.097656 182.613281 36.046875 C 183.410156 35.996094 184.210938 35.984375 185.011719 36.015625 C 185.8125 36.042969 186.609375 36.109375 187.402344 36.21875 C 188.195312 36.324219 188.980469 36.46875 189.761719 36.652344 C 190.539062 36.835938 191.308594 37.058594 192.066406 37.316406 C 192.824219 37.578125 193.566406 37.875 194.292969 38.207031 C 195.023438 38.539062 195.734375 38.90625 196.425781 39.308594 C 197.117188 39.710938 197.789062 40.144531 198.4375 40.613281 C 199.085938 41.082031 199.710938 41.582031 200.3125 42.109375 C 200.914062 42.640625 201.484375 43.199219 202.03125 43.785156 C 202.578125 44.371094 203.09375 44.980469 203.578125 45.617188 C 204.0625 46.253906 204.515625 46.914062 204.9375 47.59375 C 205.359375 48.277344 205.746094 48.976562 206.097656 49.695312 C 206.449219 50.414062 206.765625 51.148438 207.046875 51.898438 C 207.324219 52.648438 207.566406 53.410156 207.773438 54.183594 C 207.976562 54.957031 208.144531 55.742188 208.273438 56.53125 Z M 208.273438 56.53125 " fill-opacity="1" fill-rule="nonzero"/></svg>